<svg xmlns="http://www.w3.org/2000/svg" xmlns:xlink="http://www.w3.org/1999/xlink" xmlns:lucid="lucid" width="1246.33" height="503"><g transform="translate(681.5 -478.5)" lucid:page-tab-id="0_0"><path d="M-618.33 960H-654a6 6 0 0 1-6-6V506a6 6 0 0 1 6-6h35.67z" stroke="#5e5e5e" stroke-width="3" fill="#fff"/><path d="M-618.33 500H537.33a6 6 0 0 1 6 6v448a6 6 0 0 1-6 6H-618.33z" stroke="#5e5e5e" stroke-width="3" fill="none"/><use xlink:href="#a" transform="matrix(-1.8369701987210297e-16,-1,1,-1.8369701987210297e-16,-659.9999999999999,960) translate(201.0493827160494 25.444444444444443)"/><use xlink:href="#b" transform="matrix(-1.8369701987210297e-16,-1,1,-1.8369701987210297e-16,-618.3333333333331,960) translate(164.6604938271605 25.444444444444443)"/><path d="M-540 646a6 6 0 0 1 6-6h148a6 6 0 0 1 6 6v108a6 6 0 0 1-6 6h-148a6 6 0 0 1-6-6z" stroke="#5e5e5e" stroke-width="3" fill="#fff"/><path d="M-531.4 674.1v-14.7l7-4.2h12.95c1.05 0 .35 2.1-.7 4h-8.75l-.35.4h23.8c.35 0 1.05 1.9-.7 3.8h-14l-.35.4h14s1.05 1.9-1.05 3.8h-11.55l-.35.4h11.2s1.05 1.9-1.05 3.8h-10.5l-.35.4h9.8s1.05 1.9-.7 4h-24.85z" stroke="#5e5e5e" stroke-width="3" fill="#fff"/><use xlink:href="#c" transform="matrix(1,0,0,1,-540,640) translate(53.555 19.41)"/><use xlink:href="#d" transform="matrix(1,0,0,1,-540,640) translate(55.53000000000001 41.01)"/><use xlink:href="#e" transform="matrix(1,0,0,1,-540,640) translate(80.53 41.01)"/><use xlink:href="#d" transform="matrix(1,0,0,1,-540,640) translate(7.204999999999993 62.61)"/><use xlink:href="#f" transform="matrix(1,0,0,1,-540,640) translate(32.20499999999999 62.61)"/><use xlink:href="#g" transform="matrix(1,0,0,1,-540,640) translate(84.155 62.61)"/><use xlink:href="#h" transform="matrix(1,0,0,1,-540,640) translate(106.505 62.61)"/><use xlink:href="#i" transform="matrix(1,0,0,1,-540,640) translate(42.879999999999995 84.21000000000001)"/><use xlink:href="#j" transform="matrix(1,0,0,1,-540,640) translate(83.83 84.21000000000001)"/><use xlink:href="#k" transform="matrix(1,0,0,1,-540,640) translate(9.404999999999996 105.81)"/><path d="M-377.5 700H-200" stroke="#5e5e5e" stroke-width="2" fill="none"/><path d="M-377.47 700.98h-1.03V699h1.03z" stroke="#5e5e5e" stroke-width=".05" fill="#5e5e5e"/><path d="M-184.74 700l-14.26 4.63v-9.26z" stroke="#5e5e5e" stroke-width="2" fill="#5e5e5e"/><path d="M-180 646a6 6 0 0 1 6-6h148a6 6 0 0 1 6 6v108a6 6 0 0 1-6 6h-148a6 6 0 0 1-6-6z" stroke="#5e5e5e" stroke-width="3" fill="#fff"/><path d="M-170.62 653.02h34.03v6.5h-34.02v-6.5z" stroke="#000" stroke-width="2" fill="#b3b1b3"/><path d="M-170.62 653.02h34.03v6.5h-34.02v-6.5z" stroke="#000" stroke-width="2" fill="none"/><path d="M-170.62 659.3h34.03v19.9h-34.02v-19.9z" stroke="#000" stroke-width="2" fill="#fff"/><path d="M-170.62 659.3h34.03v19.9h-34.02v-19.9zM-170.44 669.3h34.04M-161.58 659.52v19.68" stroke="#000" stroke-width="2" fill="none"/><use xlink:href="#l" transform="matrix(1,0,0,1,-180,640) translate(58.529999999999994 40.65)"/><use xlink:href="#m" transform="matrix(1,0,0,1,-180,640) translate(23.080000000000005 62.25)"/><use xlink:href="#n" transform="matrix(1,0,0,1,-180,640) translate(48.080000000000005 62.25)"/><use xlink:href="#o" transform="matrix(1,0,0,1,-180,640) translate(41.05499999999999 83.85000000000001)"/><path d="M-250 787.5c0-4.14-22.4-7.5-50-7.5s-50 3.36-50 7.5V834c0 2.64 22.4 6 50 6s50-3.36 50-7.5z" stroke="#5e5e5e" stroke-width="3" fill="#fff"/><path d="M-250 787.5c0 4.14-22.4 7.5-50 7.5s-50-3.36-50-7.5m100 5.7c0 2.64-22.4 6-50 6s-50-3.36-50-7.5m100 5.7c0 2.64-22.4 6-50 6s-50-3.36-50-7.5" stroke="#5e5e5e" stroke-width="3" fill="#fff"/><path d="M-460 762.5v3.46m0 6.9v6.93m0 6.9v6.92m0 6.92V804l.07.94.22.9.35.88.5.8.6.72.72.6.8.5.88.37.9.23.95.07h4.2m8.4 0h8.4m8.4 0h8.4m8.4 0h8.4m8.4 0h8.4m8.4 0h4.2" stroke="#5e5e5e" stroke-width="2" fill="none"/><path d="M-459.02 762.53h-1.96v-1.03h1.96z" stroke="#5e5e5e" stroke-width=".05" fill="#5e5e5e"/><path d="M-354.74 810l-14.26 4.63v-9.26z" stroke="#5e5e5e" stroke-width="2" fill="#5e5e5e"/><path d="M-380 846a6 6 0 0 1 6-6h148a6 6 0 0 1 6 6v28a6 6 0 0 1-6 6h-148a6 6 0 0 1-6-6z" fill="none"/><use xlink:href="#p" transform="matrix(1,0,0,1,-380,840) translate(2.8611111111111285 24)"/><use xlink:href="#q" transform="matrix(1,0,0,1,-380,840) translate(75.02777777777779 24)"/><path d="M110 700l37.5-37.5L185 700l-37.5 37.5z" stroke="#5e5e5e" stroke-width="3" fill="#fff"/><path d="M-17.5 700H89.38" stroke="#5e5e5e" stroke-width="2" fill="none"/><path d="M-17.47 700.98h-1.03V699h1.03z" stroke="#5e5e5e" stroke-width=".05" fill="#5e5e5e"/><path d="M104.64 700l-14.26 4.63v-9.26z" stroke="#5e5e5e" stroke-width="2" fill="#5e5e5e"/><path d="M97.5 743.5a6 6 0 0 1 6-6h88a6 6 0 0 1 6 6v48a6 6 0 0 1-6 6h-88a6 6 0 0 1-6-6z" fill="none"/><use xlink:href="#r" transform="matrix(1,0,0,1,97.5,737.5) translate(0.055555555555557135 22)"/><use xlink:href="#s" transform="matrix(1,0,0,1,97.5,737.5) translate(7.861111111111121 46)"/><path d="M316.67 546a6 6 0 0 1 6-6h148a6 6 0 0 1 6 6v108a6 6 0 0 1-6 6h-148a6 6 0 0 1-6-6z" stroke="#5e5e5e" stroke-width="3" fill="#fff"/><use xlink:href="#t" transform="matrix(1,0,0,1,316.66666666666663,540) translate(45.07999999999999 40.65)"/><use xlink:href="#u" transform="matrix(1,0,0,1,316.66666666666663,540) translate(20.08 62.25)"/><use xlink:href="#v" transform="matrix(1,0,0,1,316.66666666666663,540) translate(119.93 62.25)"/><use xlink:href="#w" transform="matrix(1,0,0,1,316.66666666666663,540) translate(24.679999999999993 83.85000000000001)"/><use xlink:href="#x" transform="matrix(1,0,0,1,316.66666666666663,540) translate(69.53 83.85000000000001)"/><path d="M147.5 659.38V638.3a6 6 0 0 1 6-6h143.17" stroke="#5e5e5e" stroke-width="2" fill="none"/><path d="M148.47 661.35l-.97-.97-.97.97v-2h1.94z" stroke="#5e5e5e" stroke-width=".05" fill="#5e5e5e"/><path d="M311.93 632.3l-14.26 4.65v-9.27z" stroke="#5e5e5e" stroke-width="2" fill="#5e5e5e"/><path d="M314.17 600H-94a6 6 0 0 0-6 6v14" stroke="#5e5e5e" stroke-width="2" fill="none"/><path d="M315.17 600.98h-1.03V599h1.03z" stroke="#5e5e5e" stroke-width=".05" fill="#5e5e5e"/><path d="M-100 635.26l-4.64-14.26h9.28z" stroke="#5e5e5e" stroke-width="2" fill="#5e5e5e"/><path d="M97.5 605a6 6 0 0 1 6-6H154a6 6 0 0 1 6 6v28a6 6 0 0 1-6 6h-50.5a6 6 0 0 1-6-6z" fill="none"/><g><use xlink:href="#y" transform="matrix(1,0,0,1,97.5,598.9999500000004) translate(15.2283950617284 23.555555555555557)"/></g><path d="M147.5 740.62V834a6 6 0 0 0 6 6h163.17" stroke="#5e5e5e" stroke-width="2" fill="none"/><path d="M148.47 740.65h-1.94v-2l.97.97.97-.97z" stroke="#5e5e5e" stroke-width=".05" fill="#5e5e5e"/><path d="M331.93 840l-14.26 4.63v-9.26z" stroke="#5e5e5e" stroke-width="2" fill="#5e5e5e"/><path d="M135 846a6 6 0 0 1 6-6h50.5a6 6 0 0 1 6 6v28a6 6 0 0 1-6 6H141a6 6 0 0 1-6-6z" fill="none"/><g><use xlink:href="#z" transform="matrix(1,0,0,1,135,840) translate(16.240740740740744 23.555555555555557)"/></g><path d="M336.67 786a6 6 0 0 1 6-6h148a6 6 0 0 1 6 6v108a6 6 0 0 1-6 6h-148a6 6 0 0 1-6-6z" stroke="#5e5e5e" stroke-width="3" fill="#fff"/><path d="M345.27 814.1v-14.7l7-4.2h12.95c1.05 0 .35 2.1-.7 4h-8.75l-.35.4h23.8c.35 0 1.05 1.9-.7 3.8h-14l-.35.4h14s1.05 1.9-1.05 3.8h-11.55l-.35.4h11.2s1.05 1.9-1.05 3.8h-10.5l-.35.4h9.8s1.05 1.9-.7 4h-24.85z" stroke="#5e5e5e" stroke-width="3" fill="#fff"/><g><use xlink:href="#c" transform="matrix(1,0,0,1,336.66666666666663,780) translate(53.555 19.41)"/><use xlink:href="#d" transform="matrix(1,0,0,1,336.66666666666663,780) translate(55.53000000000001 41.01)"/><use xlink:href="#e" transform="matrix(1,0,0,1,336.66666666666663,780) translate(80.53 41.01)"/><use xlink:href="#d" transform="matrix(1,0,0,1,336.66666666666663,780) translate(12.37999999999999 62.61)"/><use xlink:href="#f" transform="matrix(1,0,0,1,336.66666666666663,780) translate(37.37999999999999 62.61)"/><use xlink:href="#A" transform="matrix(1,0,0,1,336.66666666666663,780) translate(89.33 62.61)"/><use xlink:href="#j" transform="matrix(1,0,0,1,336.66666666666663,780) translate(114.33 62.61)"/><use xlink:href="#B" transform="matrix(1,0,0,1,336.66666666666663,780) translate(9.404999999999996 84.21000000000001)"/><use xlink:href="#i" transform="matrix(1,0,0,1,336.66666666666663,780) translate(13.204999999999993 105.81)"/><use xlink:href="#C" transform="matrix(1,0,0,1,336.66666666666663,780) translate(54.154999999999994 105.81)"/><use xlink:href="#D" transform="matrix(1,0,0,1,336.66666666666663,780) translate(92.455 105.81)"/></g><path d="M416.67 902.5v4.13m0 8.25v8.25m0 8.25v4.12l-.08.94-.23.9-.36.88-.48.8-.6.72-.73.6-.8.5-.88.37-.9.23-.95.07h-4.04m-8.06 0h-8.07m-8.07 0h-8.07m-8.07 0h-8.07m-8.07 0h-8.07m-8.08 0h-8.07m-8.06 0h-8.08m-8.07 0h-8.07m-8.07 0h-8.06m-8.06 0h-8.07m-8.06 0h-8.07m-8.06 0h-8.06m-8.07 0H213m-8.07 0h-8.06m-8.07 0h-8.07m-8.07 0h-8.07m-8.08 0h-8.06m-8.07 0h-8.08m-8.07 0h-8.07m-8.06 0h-8.07m-8.07 0H83.9m-8.06 0h-8.06m-8.07 0h-8.06m-8.07 0H35.5m-8.06 0h-8.07m-8.07 0H3.23m-8.07 0h-8.06m-8.07 0h-8.07m-8.07 0h-8.08m-8.06 0h-8.07m-8.08 0h-8.07m-8.07 0h-8.06m-8.07 0h-8.07m-8.07 0h-8.06m-8.06 0H-142m-8.06 0h-8.07m-8.07 0h-8.06m-8.07 0h-8.07m-8.07 0h-4.03l-.94-.07-.92-.22-.87-.35-.8-.5-.7-.6-.63-.72-.5-.8-.35-.88-.23-.9-.07-.95v-4.06m0-8.13v-8.12m0-8.13v-8.13m0-8.13v-8.14m0-8.13v-8.12m0-8.12v-8.13m0-8.13v-8.13m0-8.14v-4.06l-.08-.94-.2-.92-.38-.87-.5-.8-.6-.7-.72-.63-.8-.5-.87-.35-.9-.23-.95-.07h-3.88m-7.75 0H-230" stroke="#5e5e5e" stroke-width="2" fill="none"/><path d="M417.64 902.53h-1.95v-1.03h1.94z" stroke="#5e5e5e" stroke-width=".05" fill="#5e5e5e"/><path d="M-245.27 815.7l14.27-4.64v9.27z" stroke="#5e5e5e" stroke-width="2" fill="#5e5e5e"/><defs><path d="M185-189c-5-48-123-54-124 2 14 75 158 14 163 119 3 78-121 87-175 55-17-10-28-26-33-46l33-7c5 56 141 63 141-1 0-78-155-14-162-118-5-82 145-84 179-34 5 7 8 16 11 25" id="E"/><path d="M115-194c55 1 70 41 70 98S169 2 115 4C84 4 66-9 55-30l1 105H24l-1-265h31l2 30c10-21 28-34 59-34zm-8 174c40 0 45-34 45-75s-6-73-45-74c-42 0-51 32-51 76 0 43 10 73 51 73" id="F"/><path d="M114-163C36-179 61-72 57 0H25l-1-190h30c1 12-1 29 2 39 6-27 23-49 58-41v29" id="G"/><path d="M24-231v-30h32v30H24zM24 0v-190h32V0H24" id="H"/><path d="M117-194c89-4 53 116 60 194h-32v-121c0-31-8-49-39-48C34-167 62-67 57 0H25l-1-190h30c1 10-1 24 2 32 11-22 29-35 61-36" id="I"/><path d="M59-47c-2 24 18 29 38 22v24C64 9 27 4 27-40v-127H5v-23h24l9-43h21v43h35v23H59v120" id="J"/><g id="a"><use transform="matrix(0.06172839506172839,0,0,0.06172839506172839,0,0)" xlink:href="#E"/><use transform="matrix(0.06172839506172839,0,0,0.06172839506172839,14.814814814814813,0)" xlink:href="#F"/><use transform="matrix(0.06172839506172839,0,0,0.06172839506172839,27.160493827160494,0)" xlink:href="#G"/><use transform="matrix(0.06172839506172839,0,0,0.06172839506172839,34.50617283950617,0)" xlink:href="#H"/><use transform="matrix(0.06172839506172839,0,0,0.06172839506172839,39.382716049382715,0)" xlink:href="#I"/><use transform="matrix(0.06172839506172839,0,0,0.06172839506172839,51.72839506172839,0)" xlink:href="#J"/></g><path d="M30-248c118-7 216 8 213 122C240-48 200 0 122 0H30v-248zM63-27c89 8 146-16 146-99s-60-101-146-95v194" id="K"/><path d="M100-194c63 0 86 42 84 106H49c0 40 14 67 53 68 26 1 43-12 49-29l28 8c-11 28-37 45-77 45C44 4 14-33 15-96c1-61 26-98 85-98zm52 81c6-60-76-77-97-28-3 7-6 17-6 28h103" id="L"/><path d="M108 0H70L1-190h34L89-25l56-165h34" id="M"/><path d="M24 0v-261h32V0H24" id="N"/><path d="M100-194c62-1 85 37 85 99 1 63-27 99-86 99S16-35 15-95c0-66 28-99 85-99zM99-20c44 1 53-31 53-75 0-43-8-75-51-75s-53 32-53 75 10 74 51 75" id="O"/><path d="M210-169c-67 3-38 105-44 169h-31v-121c0-29-5-50-35-48C34-165 62-65 56 0H25l-1-190h30c1 10-1 24 2 32 10-44 99-50 107 0 11-21 27-35 58-36 85-2 47 119 55 194h-31v-121c0-29-5-49-35-48" id="P"/><g id="b"><use transform="matrix(0.06172839506172839,0,0,0.06172839506172839,0,0)" xlink:href="#K"/><use transform="matrix(0.06172839506172839,0,0,0.06172839506172839,15.987654320987653,0)" xlink:href="#L"/><use transform="matrix(0.06172839506172839,0,0,0.06172839506172839,28.333333333333332,0)" xlink:href="#M"/><use transform="matrix(0.06172839506172839,0,0,0.06172839506172839,39.44444444444444,0)" xlink:href="#L"/><use transform="matrix(0.06172839506172839,0,0,0.06172839506172839,51.79012345679012,0)" xlink:href="#N"/><use transform="matrix(0.06172839506172839,0,0,0.06172839506172839,56.666666666666664,0)" xlink:href="#O"/><use transform="matrix(0.06172839506172839,0,0,0.06172839506172839,69.01234567901234,0)" xlink:href="#F"/><use transform="matrix(0.06172839506172839,0,0,0.06172839506172839,81.35802469135803,0)" xlink:href="#P"/><use transform="matrix(0.06172839506172839,0,0,0.06172839506172839,99.81481481481481,0)" xlink:href="#L"/><use transform="matrix(0.06172839506172839,0,0,0.06172839506172839,112.1604938271605,0)" xlink:href="#I"/><use transform="matrix(0.06172839506172839,0,0,0.06172839506172839,124.50617283950618,0)" xlink:href="#J"/></g><path d="M205 0l-28-72H64L36 0H1l101-248h38L239 0h-34zm-38-99l-47-123c-12 45-31 82-46 123h93" id="Q"/><path d="M84 4C-5 8 30-112 23-190h32v120c0 31 7 50 39 49 72-2 45-101 50-169h31l1 190h-30c-1-10 1-25-2-33-11 22-28 36-60 37" id="R"/><path d="M141-36C126-15 110 5 73 4 37 3 15-17 15-53c-1-64 63-63 125-63 3-35-9-54-41-54-24 1-41 7-42 31l-33-3c5-37 33-52 76-52 45 0 72 20 72 64v82c-1 20 7 32 28 27v20c-31 9-61-2-59-35zM48-53c0 20 12 33 32 33 41-3 63-29 60-74-43 2-92-5-92 41" id="S"/><path d="M9 0v-24l116-142H16v-24h144v24L44-24h123V0H9" id="T"/><path d="M96-169c-40 0-48 33-48 73s9 75 48 75c24 0 41-14 43-38l32 2c-6 37-31 61-74 61-59 0-76-41-82-99-10-93 101-131 147-64 4 7 5 14 7 22l-32 3c-4-21-16-35-41-35zm3 187c19-1 33 8 33 26 0 31-30 33-64 32V58c18 2 39 4 41-13 1-15-18-13-34-13L87 0h19" id="U"/><path d="M141-36C126-15 110 5 73 4 37 3 15-17 15-53c-1-64 63-63 125-63 3-35-9-54-41-54-24 1-41 7-42 31l-33-3c5-37 33-52 76-52 45 0 72 20 72 64v82c-1 20 7 32 28 27v20c-31 9-61-2-59-35zM48-53c0 20 12 33 32 33 41-3 63-29 60-74-43 2-92-5-92 41zm117-205c-3 23-9 48-36 47-26-1-65-44-74 0H39c4-23 8-48 36-47s64 44 74 0h16" id="V"/><g id="c"><use transform="matrix(0.05,0,0,0.05,0,0)" xlink:href="#Q"/><use transform="matrix(0.05,0,0,0.05,12,0)" xlink:href="#J"/><use transform="matrix(0.05,0,0,0.05,17,0)" xlink:href="#R"/><use transform="matrix(0.05,0,0,0.05,27,0)" xlink:href="#S"/><use transform="matrix(0.05,0,0,0.05,37,0)" xlink:href="#N"/><use transform="matrix(0.05,0,0,0.05,40.95,0)" xlink:href="#H"/><use transform="matrix(0.05,0,0,0.05,44.900000000000006,0)" xlink:href="#T"/><use transform="matrix(0.05,0,0,0.05,53.900000000000006,0)" xlink:href="#S"/><use transform="matrix(0.05,0,0,0.05,63.900000000000006,0)" xlink:href="#U"/><use transform="matrix(0.05,0,0,0.05,72.9,0)" xlink:href="#V"/><use transform="matrix(0.05,0,0,0.05,82.9,0)" xlink:href="#O"/></g><path d="M85-194c31 0 48 13 60 33l-1-100h32l1 261h-30c-2-10 0-23-3-31C134-8 116 4 85 4 32 4 16-35 15-94c0-66 23-100 70-100zm9 24c-40 0-46 34-46 75 0 40 6 74 45 74 42 0 51-32 51-76 0-42-9-74-50-73" id="W"/><g id="d"><use transform="matrix(0.05,0,0,0.05,0,0)" xlink:href="#W"/><use transform="matrix(0.05,0,0,0.05,10,0)" xlink:href="#S"/></g><path d="M135-143c-3-34-86-38-87 0 15 53 115 12 119 90S17 21 10-45l28-5c4 36 97 45 98 0-10-56-113-15-118-90-4-57 82-63 122-42 12 7 21 19 24 35" id="X"/><g id="e"><use transform="matrix(0.05,0,0,0.05,0,0)" xlink:href="#X"/><use transform="matrix(0.05,0,0,0.05,9,0)" xlink:href="#H"/><use transform="matrix(0.05,0,0,0.05,12.949999999999998,0)" xlink:href="#J"/><use transform="matrix(0.05,0,0,0.05,17.95,0)" xlink:href="#R"/><use transform="matrix(0.05,0,0,0.05,27.950000000000003,0)" xlink:href="#S"/><use transform="matrix(0.05,0,0,0.05,37.95,0)" xlink:href="#U"/><use transform="matrix(0.05,0,0,0.05,46.95,0)" xlink:href="#V"/><use transform="matrix(0.05,0,0,0.05,56.95,0)" xlink:href="#O"/></g><path d="M33-154v-36h34v36H33zM33 0v-36h34V0H33" id="Y"/><g id="f"><use transform="matrix(0.05,0,0,0.05,0,0)" xlink:href="#H"/><use transform="matrix(0.05,0,0,0.05,3.95,0)" xlink:href="#X"/><use transform="matrix(0.05,0,0,0.05,12.949999999999998,0)" xlink:href="#X"/><use transform="matrix(0.05,0,0,0.05,21.95,0)" xlink:href="#R"/><use transform="matrix(0.05,0,0,0.05,31.950000000000003,0)" xlink:href="#L"/><use transform="matrix(0.05,0,0,0.05,41.95,0)" xlink:href="#Y"/></g><path d="M109-170H84l-4-78h32zm-65 0H19l-4-78h33" id="Z"/><g id="g"><use transform="matrix(0.05,0,0,0.05,0,0)" xlink:href="#Z"/><use transform="matrix(0.05,0,0,0.05,6.3500000000000005,0)" xlink:href="#Q"/></g><path d="M101-234c-31-9-42 10-38 44h38v23H63V0H32v-167H5v-23h27c-7-52 17-82 69-68v24" id="aa"/><g id="h"><use transform="matrix(0.05,0,0,0.05,0,0)" xlink:href="#aa"/><use transform="matrix(0.05,0,0,0.05,5,0)" xlink:href="#S"/><use transform="matrix(0.05,0,0,0.05,15,0)" xlink:href="#T"/><use transform="matrix(0.05,0,0,0.05,24,0)" xlink:href="#L"/><use transform="matrix(0.05,0,0,0.05,34,0)" xlink:href="#G"/><use transform="matrix(0.05,0,0,0.05,39.95,0)" xlink:href="#Z"/></g><g id="i"><use transform="matrix(0.05,0,0,0.05,0,0)" xlink:href="#F"/><use transform="matrix(0.05,0,0,0.05,10,0)" xlink:href="#S"/><use transform="matrix(0.05,0,0,0.05,20,0)" xlink:href="#G"/><use transform="matrix(0.05,0,0,0.05,25.950000000000003,0)" xlink:href="#S"/></g><path d="M30 0v-248h187v28H63v79h144v27H63v87h162V0H30" id="ab"/><g id="j"><use transform="matrix(0.05,0,0,0.05,0,0)" xlink:href="#Z"/><use transform="matrix(0.05,0,0,0.05,6.3500000000000005,0)" xlink:href="#ab"/><use transform="matrix(0.05,0,0,0.05,18.35,0)" xlink:href="#P"/></g><g id="k"><use transform="matrix(0.05,0,0,0.05,0,0)" xlink:href="#W"/><use transform="matrix(0.05,0,0,0.05,10,0)" xlink:href="#L"/><use transform="matrix(0.05,0,0,0.05,20,0)" xlink:href="#X"/><use transform="matrix(0.05,0,0,0.05,29,0)" xlink:href="#L"/><use transform="matrix(0.05,0,0,0.05,39,0)" xlink:href="#I"/><use transform="matrix(0.05,0,0,0.05,49,0)" xlink:href="#M"/><use transform="matrix(0.05,0,0,0.05,58,0)" xlink:href="#O"/><use transform="matrix(0.05,0,0,0.05,68,0)" xlink:href="#N"/><use transform="matrix(0.05,0,0,0.05,71.95,0)" xlink:href="#M"/><use transform="matrix(0.05,0,0,0.05,80.95,0)" xlink:href="#H"/><use transform="matrix(0.05,0,0,0.05,84.9,0)" xlink:href="#P"/><use transform="matrix(0.05,0,0,0.05,99.85000000000001,0)" xlink:href="#L"/><use transform="matrix(0.05,0,0,0.05,109.85000000000001,0)" xlink:href="#I"/><use transform="matrix(0.05,0,0,0.05,119.85000000000001,0)" xlink:href="#J"/><use transform="matrix(0.05,0,0,0.05,124.85000000000001,0)" xlink:href="#O"/><use transform="matrix(0.05,0,0,0.05,134.85000000000002,0)" xlink:href="#Z"/></g><path d="M212-179c-10-28-35-45-73-45-59 0-87 40-87 99 0 60 29 101 89 101 43 0 62-24 78-52l27 14C228-24 195 4 139 4 59 4 22-46 18-125c-6-104 99-153 187-111 19 9 31 26 39 46" id="ac"/><path d="M96-169c-40 0-48 33-48 73s9 75 48 75c24 0 41-14 43-38l32 2c-6 37-31 61-74 61-59 0-76-41-82-99-10-93 101-131 147-64 4 7 5 14 7 22l-32 3c-4-21-16-35-41-35" id="ad"/><g id="l"><use transform="matrix(0.05,0,0,0.05,0,0)" xlink:href="#ac"/><use transform="matrix(0.05,0,0,0.05,12.950000000000001,0)" xlink:href="#O"/><use transform="matrix(0.05,0,0,0.05,22.950000000000003,0)" xlink:href="#I"/><use transform="matrix(0.05,0,0,0.05,32.95,0)" xlink:href="#aa"/><use transform="matrix(0.05,0,0,0.05,37.95,0)" xlink:href="#L"/><use transform="matrix(0.05,0,0,0.05,47.95,0)" xlink:href="#ad"/><use transform="matrix(0.05,0,0,0.05,56.95,0)" xlink:href="#U"/><use transform="matrix(0.05,0,0,0.05,65.95,0)" xlink:href="#V"/><use transform="matrix(0.05,0,0,0.05,75.95,0)" xlink:href="#O"/></g><g id="m"><use transform="matrix(0.05,0,0,0.05,0,0)" xlink:href="#W"/><use transform="matrix(0.05,0,0,0.05,10,0)" xlink:href="#O"/></g><g id="n"><use transform="matrix(0.05,0,0,0.05,0,0)" xlink:href="#H"/><use transform="matrix(0.05,0,0,0.05,3.95,0)" xlink:href="#I"/><use transform="matrix(0.05,0,0,0.05,13.949999999999998,0)" xlink:href="#ad"/><use transform="matrix(0.05,0,0,0.05,22.95,0)" xlink:href="#G"/><use transform="matrix(0.05,0,0,0.05,28.899999999999995,0)" xlink:href="#L"/><use transform="matrix(0.05,0,0,0.05,38.9,0)" xlink:href="#P"/><use transform="matrix(0.05,0,0,0.05,53.85,0)" xlink:href="#L"/><use transform="matrix(0.05,0,0,0.05,63.85,0)" xlink:href="#I"/><use transform="matrix(0.05,0,0,0.05,73.85,0)" xlink:href="#J"/><use transform="matrix(0.05,0,0,0.05,78.85,0)" xlink:href="#O"/></g><path d="M24-231v-30h32v30H24zM-9 49c24 4 33-6 33-30v-209h32V24c2 40-23 58-65 49V49" id="ae"/><g id="o"><use transform="matrix(0.05,0,0,0.05,0,0)" xlink:href="#F"/><use transform="matrix(0.05,0,0,0.05,10,0)" xlink:href="#N"/><use transform="matrix(0.05,0,0,0.05,13.949999999999998,0)" xlink:href="#S"/><use transform="matrix(0.05,0,0,0.05,23.95,0)" xlink:href="#I"/><use transform="matrix(0.05,0,0,0.05,33.95,0)" xlink:href="#L"/><use transform="matrix(0.05,0,0,0.05,43.95,0)" xlink:href="#ae"/><use transform="matrix(0.05,0,0,0.05,47.900000000000006,0)" xlink:href="#S"/><use transform="matrix(0.05,0,0,0.05,57.900000000000006,0)" xlink:href="#W"/><use transform="matrix(0.05,0,0,0.05,67.9,0)" xlink:href="#O"/></g><path d="M140-251c81 0 123 46 123 126C263-53 228-8 163 1c7 30 30 48 69 40v23c-55 16-95-15-103-61C56-3 17-48 17-125c0-80 42-126 123-126zm0 227c63 0 89-41 89-101s-29-99-89-99c-61 0-89 39-89 99S79-25 140-24" id="af"/><g id="p"><use transform="matrix(0.055555555555555546,0,0,0.055555555555555546,0,0)" xlink:href="#af"/><use transform="matrix(0.055555555555555546,0,0,0.055555555555555546,15.555555555555554,0)" xlink:href="#R"/><use transform="matrix(0.055555555555555546,0,0,0.055555555555555546,26.666666666666664,0)" xlink:href="#S"/><use transform="matrix(0.055555555555555546,0,0,0.055555555555555546,37.77777777777777,0)" xlink:href="#W"/><use transform="matrix(0.055555555555555546,0,0,0.055555555555555546,48.88888888888888,0)" xlink:href="#G"/><use transform="matrix(0.055555555555555546,0,0,0.055555555555555546,55.499999999999986,0)" xlink:href="#O"/></g><path d="M194 0L95-120 63-95V0H30v-248h33v124l119-124h40L117-140 236 0h-42" id="ag"/><path d="M190 0L58-211 59 0H30v-248h39L202-35l-2-213h31V0h-41" id="ah"/><path d="M160-131c35 5 61 23 61 61C221 17 115-2 30 0v-248c76 3 177-17 177 60 0 33-19 50-47 57zm-97-11c50-1 110 9 110-42 0-47-63-36-110-37v79zm0 115c55-2 124 14 124-45 0-56-70-42-124-44v89" id="ai"/><g id="q"><use transform="matrix(0.055555555555555546,0,0,0.055555555555555546,0,0)" xlink:href="#ag"/><use transform="matrix(0.055555555555555546,0,0,0.055555555555555546,13.33333333333333,0)" xlink:href="#Q"/><use transform="matrix(0.055555555555555546,0,0,0.055555555555555546,26.66666666666666,0)" xlink:href="#ah"/><use transform="matrix(0.055555555555555546,0,0,0.055555555555555546,41.05555555555554,0)" xlink:href="#ai"/><use transform="matrix(0.055555555555555546,0,0,0.055555555555555546,54.38888888888887,0)" xlink:href="#Q"/><use transform="matrix(0.055555555555555546,0,0,0.055555555555555546,67.7222222222222,0)" xlink:href="#ah"/></g><path d="M33 0v-248h34V0H33" id="aj"/><g id="r"><use transform="matrix(0.055555555555555546,0,0,0.055555555555555546,0,0)" xlink:href="#aj"/><use transform="matrix(0.055555555555555546,0,0,0.055555555555555546,5.5555555555555545,0)" xlink:href="#I"/><use transform="matrix(0.055555555555555546,0,0,0.055555555555555546,16.666666666666664,0)" xlink:href="#ad"/><use transform="matrix(0.055555555555555546,0,0,0.055555555555555546,26.666666666666664,0)" xlink:href="#G"/><use transform="matrix(0.055555555555555546,0,0,0.055555555555555546,33.27777777777777,0)" xlink:href="#L"/><use transform="matrix(0.055555555555555546,0,0,0.055555555555555546,44.38888888888888,0)" xlink:href="#P"/><use transform="matrix(0.055555555555555546,0,0,0.055555555555555546,60.999999999999986,0)" xlink:href="#L"/><use transform="matrix(0.055555555555555546,0,0,0.055555555555555546,72.1111111111111,0)" xlink:href="#I"/><use transform="matrix(0.055555555555555546,0,0,0.055555555555555546,83.22222222222221,0)" xlink:href="#J"/><use transform="matrix(0.055555555555555546,0,0,0.055555555555555546,88.77777777777777,0)" xlink:href="#O"/></g><g id="s"><use transform="matrix(0.055555555555555546,0,0,0.055555555555555546,0,0)" xlink:href="#aa"/><use transform="matrix(0.055555555555555546,0,0,0.055555555555555546,5.5555555555555545,0)" xlink:href="#H"/><use transform="matrix(0.055555555555555546,0,0,0.055555555555555546,9.944444444444443,0)" xlink:href="#I"/><use transform="matrix(0.055555555555555546,0,0,0.055555555555555546,21.05555555555555,0)" xlink:href="#S"/><use transform="matrix(0.055555555555555546,0,0,0.055555555555555546,32.16666666666666,0)" xlink:href="#N"/><use transform="matrix(0.055555555555555546,0,0,0.055555555555555546,36.55555555555554,0)" xlink:href="#H"/><use transform="matrix(0.055555555555555546,0,0,0.055555555555555546,40.94444444444443,0)" xlink:href="#T"/><use transform="matrix(0.055555555555555546,0,0,0.055555555555555546,50.94444444444443,0)" xlink:href="#S"/><use transform="matrix(0.055555555555555546,0,0,0.055555555555555546,62.05555555555553,0)" xlink:href="#W"/><use transform="matrix(0.055555555555555546,0,0,0.055555555555555546,73.16666666666664,0)" xlink:href="#O"/></g><path d="M233-177c-1 41-23 64-60 70L243 0h-38l-65-103H63V0H30v-248c88 3 205-21 203 71zM63-129c60-2 137 13 137-47 0-61-80-42-137-45v92" id="ak"/><g id="t"><use transform="matrix(0.05,0,0,0.05,0,0)" xlink:href="#ak"/><use transform="matrix(0.05,0,0,0.05,12.950000000000001,0)" xlink:href="#L"/><use transform="matrix(0.05,0,0,0.05,22.950000000000003,0)" xlink:href="#F"/><use transform="matrix(0.05,0,0,0.05,32.95,0)" xlink:href="#O"/><use transform="matrix(0.05,0,0,0.05,42.95,0)" xlink:href="#G"/><use transform="matrix(0.05,0,0,0.05,48.900000000000006,0)" xlink:href="#J"/><use transform="matrix(0.05,0,0,0.05,53.900000000000006,0)" xlink:href="#S"/><use transform="matrix(0.05,0,0,0.05,63.900000000000006,0)" xlink:href="#G"/></g><g id="u"><use transform="matrix(0.05,0,0,0.05,0,0)" xlink:href="#W"/><use transform="matrix(0.05,0,0,0.05,10,0)" xlink:href="#H"/><use transform="matrix(0.05,0,0,0.05,13.949999999999998,0)" xlink:href="#aa"/><use transform="matrix(0.05,0,0,0.05,18.95,0)" xlink:href="#H"/><use transform="matrix(0.05,0,0,0.05,22.9,0)" xlink:href="#ad"/><use transform="matrix(0.05,0,0,0.05,31.899999999999995,0)" xlink:href="#R"/><use transform="matrix(0.05,0,0,0.05,41.9,0)" xlink:href="#N"/><use transform="matrix(0.05,0,0,0.05,45.85,0)" xlink:href="#W"/><use transform="matrix(0.05,0,0,0.05,55.85,0)" xlink:href="#S"/><use transform="matrix(0.05,0,0,0.05,65.85,0)" xlink:href="#W"/><use transform="matrix(0.05,0,0,0.05,75.85,0)" xlink:href="#L"/><use transform="matrix(0.05,0,0,0.05,85.85,0)" xlink:href="#X"/></g><g id="v"><use transform="matrix(0.05,0,0,0.05,0,0)" xlink:href="#I"/><use transform="matrix(0.05,0,0,0.05,10,0)" xlink:href="#S"/></g><path d="M179-190L93 31C79 59 56 82 12 73V49c39 6 53-20 64-50L1-190h34L92-34l54-156h33" id="al"/><g id="w"><use transform="matrix(0.05,0,0,0.05,0,0)" xlink:href="#K"/><use transform="matrix(0.05,0,0,0.05,12.950000000000001,0)" xlink:href="#S"/><use transform="matrix(0.05,0,0,0.05,22.950000000000003,0)" xlink:href="#H"/><use transform="matrix(0.05,0,0,0.05,26.900000000000002,0)" xlink:href="#N"/><use transform="matrix(0.05,0,0,0.05,30.85,0)" xlink:href="#al"/></g><path d="M232-93c-1 65-40 97-104 97C67 4 28-28 28-90v-158h33c8 89-33 224 67 224 102 0 64-133 71-224h33v155" id="am"/><path d="M240 0l2-218c-23 76-54 145-80 218h-23L58-218 59 0H30v-248h44l77 211c21-75 51-140 76-211h43V0h-30" id="an"/><g id="x"><use transform="matrix(0.05,0,0,0.05,0,0)" xlink:href="#E"/><use transform="matrix(0.05,0,0,0.05,12,0)" xlink:href="#ac"/><use transform="matrix(0.05,0,0,0.05,24.950000000000003,0)" xlink:href="#ak"/><use transform="matrix(0.05,0,0,0.05,37.900000000000006,0)" xlink:href="#am"/><use transform="matrix(0.05,0,0,0.05,50.85000000000001,0)" xlink:href="#an"/></g><g id="y"><use transform="matrix(0.049382716049382706,0,0,0.049382716049382706,0,0)" xlink:href="#ah"/><use transform="matrix(0.049382716049382706,0,0,0.049382716049382706,12.790123456790122,0)" xlink:href="#V"/><use transform="matrix(0.049382716049382706,0,0,0.049382716049382706,22.666666666666664,0)" xlink:href="#O"/></g><g id="z"><use transform="matrix(0.049382716049382706,0,0,0.049382716049382706,0,0)" xlink:href="#E"/><use transform="matrix(0.049382716049382706,0,0,0.049382716049382706,11.85185185185185,0)" xlink:href="#H"/><use transform="matrix(0.049382716049382706,0,0,0.049382716049382706,15.753086419753084,0)" xlink:href="#P"/></g><g id="A"><use transform="matrix(0.05,0,0,0.05,0,0)" xlink:href="#W"/><use transform="matrix(0.05,0,0,0.05,10,0)" xlink:href="#L"/></g><g id="B"><use transform="matrix(0.05,0,0,0.05,0,0)" xlink:href="#W"/><use transform="matrix(0.05,0,0,0.05,10,0)" xlink:href="#L"/><use transform="matrix(0.05,0,0,0.05,20,0)" xlink:href="#X"/><use transform="matrix(0.05,0,0,0.05,29,0)" xlink:href="#L"/><use transform="matrix(0.05,0,0,0.05,39,0)" xlink:href="#I"/><use transform="matrix(0.05,0,0,0.05,49,0)" xlink:href="#M"/><use transform="matrix(0.05,0,0,0.05,58,0)" xlink:href="#O"/><use transform="matrix(0.05,0,0,0.05,68,0)" xlink:href="#N"/><use transform="matrix(0.05,0,0,0.05,71.95,0)" xlink:href="#M"/><use transform="matrix(0.05,0,0,0.05,80.95,0)" xlink:href="#H"/><use transform="matrix(0.05,0,0,0.05,84.9,0)" xlink:href="#P"/><use transform="matrix(0.05,0,0,0.05,99.85000000000001,0)" xlink:href="#L"/><use transform="matrix(0.05,0,0,0.05,109.85000000000001,0)" xlink:href="#I"/><use transform="matrix(0.05,0,0,0.05,119.85000000000001,0)" xlink:href="#J"/><use transform="matrix(0.05,0,0,0.05,124.85000000000001,0)" xlink:href="#O"/><use transform="matrix(0.05,0,0,0.05,134.85000000000002,0)" xlink:href="#Z"/></g><g id="C"><use transform="matrix(0.05,0,0,0.05,0,0)" xlink:href="#Z"/><use transform="matrix(0.05,0,0,0.05,6.3500000000000005,0)" xlink:href="#ab"/><use transform="matrix(0.05,0,0,0.05,18.35,0)" xlink:href="#P"/></g><g id="D"><use transform="matrix(0.05,0,0,0.05,0,0)" xlink:href="#J"/><use transform="matrix(0.05,0,0,0.05,5,0)" xlink:href="#L"/><use transform="matrix(0.05,0,0,0.05,15,0)" xlink:href="#X"/><use transform="matrix(0.05,0,0,0.05,24,0)" xlink:href="#J"/><use transform="matrix(0.05,0,0,0.05,29,0)" xlink:href="#L"/><use transform="matrix(0.05,0,0,0.05,39,0)" xlink:href="#X"/><use transform="matrix(0.05,0,0,0.05,48,0)" xlink:href="#Z"/></g></defs></g></svg>