<svg xmlns="http://www.w3.org/2000/svg" xmlns:xlink="http://www.w3.org/1999/xlink" xmlns:lucid="lucid" width="1583" height="563"><g transform="translate(1121.5 -318.5)" lucid:page-tab-id="0_0"><path d="M-1058.33 860H-1094a6 6 0 0 1-6-6V346a6 6 0 0 1 6-6h35.67z" stroke="#5e5e5e" stroke-width="3" fill="#fff"/><path d="M-1058.33 340H434a6 6 0 0 1 6 6v508a6 6 0 0 1-6 6h-1492.33z" stroke="#5e5e5e" stroke-width="3" fill="none"/><use xlink:href="#a" transform="matrix(-1.8369701987210297e-16,-1,1,-1.8369701987210297e-16,-1100.0000000000002,860) translate(231.0493827160494 25.444444444444443)"/><use xlink:href="#b" transform="matrix(-1.8369701987210297e-16,-1,1,-1.8369701987210297e-16,-1058.3333333333335,860.0000000000001) translate(223.67283950617283 25.444444444444443)"/><path d="M-955.68 516a6 6 0 0 1 6-6h148a6 6 0 0 1 6 6v108a6 6 0 0 1-6 6h-148a6 6 0 0 1-6-6z" stroke="#5e5e5e" stroke-width="3" fill="#fff"/><path d="M-947.1 544.1v-14.7l7-4.2h12.97c1.04 0 .35 2.1-.7 4h-8.75l-.35.4h23.8c.35 0 1.04 1.9-.7 3.8h-14l-.35.4h14s1.04 1.9-1.06 3.8h-11.54l-.36.4h11.2s1.06 1.9-1.04 3.8h-10.5l-.36.4h9.8s1.05 1.9-.7 4h-24.85z" stroke="#5e5e5e" stroke-width="3" fill="#fff"/><use xlink:href="#c" transform="matrix(1,0,0,1,-955.6854521221871,510) translate(53.555 19.41)"/><use xlink:href="#d" transform="matrix(1,0,0,1,-955.6854521221871,510) translate(55.53000000000001 41.01)"/><use xlink:href="#e" transform="matrix(1,0,0,1,-955.6854521221871,510) translate(80.53 41.01)"/><use xlink:href="#d" transform="matrix(1,0,0,1,-955.6854521221871,510) translate(12.37999999999999 62.61)"/><use xlink:href="#f" transform="matrix(1,0,0,1,-955.6854521221871,510) translate(37.37999999999999 62.61)"/><use xlink:href="#g" transform="matrix(1,0,0,1,-955.6854521221871,510) translate(89.33 62.61)"/><use xlink:href="#h" transform="matrix(1,0,0,1,-955.6854521221871,510) translate(114.33 62.61)"/><use xlink:href="#i" transform="matrix(1,0,0,1,-955.6854521221871,510) translate(9.404999999999996 84.21000000000001)"/><use xlink:href="#j" transform="matrix(1,0,0,1,-955.6854521221871,510) translate(13.204999999999993 105.81)"/><use xlink:href="#k" transform="matrix(1,0,0,1,-955.6854521221871,510) translate(54.154999999999994 105.81)"/><use xlink:href="#l" transform="matrix(1,0,0,1,-955.6854521221871,510) translate(92.455 105.81)"/><path d="M-793.2 570h113" stroke="#5e5e5e" stroke-width="2" fill="none"/><path d="M-793.16 570.98h-1.03V569h1.04z" stroke="#5e5e5e" stroke-width=".05" fill="#5e5e5e"/><path d="M-664.92 570l-14.27 4.63v-9.26z" stroke="#5e5e5e" stroke-width="2" fill="#5e5e5e"/><path d="M-453.7 570h94.6" stroke="#5e5e5e" stroke-width="2" fill="none"/><path d="M-453.66 570.98h-1.03V569h1.04z" stroke="#5e5e5e" stroke-width=".05" fill="#5e5e5e"/><path d="M-343.84 570l-14.26 4.63v-9.26z" stroke="#5e5e5e" stroke-width="2" fill="#5e5e5e"/><path d="M-875.68 632.5v3.84m0 7.7v7.68m0 7.7v7.67m0 7.68v7.7m0 7.68V694l.07.94.2.9.37.88.5.8.6.72.72.6.8.5.86.37.92.23.94.07h3.68m7.38 0h7.37m7.38 0h7.37m7.38 0h7.37m7.38 0h3.68" stroke="#5e5e5e" stroke-width="2" fill="none"/><path d="M-874.7 632.53h-1.96v-1.03h1.95z" stroke="#5e5e5e" stroke-width=".05" fill="#5e5e5e"/><path d="M-795.42 700l-14.27 4.63v-9.26z" stroke="#5e5e5e" stroke-width="2" fill="#5e5e5e"/><path d="M-690.68 677.5c0-4.14-22.4-7.5-50-7.5-27.62 0-50 3.36-50 7.5V724c0 2.64 22.38 6 50 6 27.6 0 50-3.36 50-7.5z" stroke="#5e5e5e" stroke-width="3" fill="#fff"/><path d="M-690.68 677.5c0 4.14-22.4 7.5-50 7.5-27.62 0-50-3.36-50-7.5m100 5.7c0 2.64-22.4 6-50 6-27.62 0-50-3.36-50-7.5m100 5.7c0 2.64-22.4 6-50 6-27.62 0-50-3.36-50-7.5" stroke="#5e5e5e" stroke-width="3" fill="#fff"/><path d="M-815.68 736a6 6 0 0 1 6-6h148a6 6 0 0 1 6 6v28a6 6 0 0 1-6 6h-148a6 6 0 0 1-6-6z" fill="none"/><use xlink:href="#m" transform="matrix(1,0,0,1,-815.6854521221871,730) translate(2.8611111111111285 24)"/><use xlink:href="#n" transform="matrix(1,0,0,1,-815.6854521221871,730) translate(75.02777777777779 24)"/><path d="M-660.68 503.48a5 5 0 0 1 5-5h195a5 5 0 0 1 5 5v133.04a5 5 0 0 1-5 5h-195a5 5 0 0 1-5-5z" stroke="#333" stroke-width="2" fill="#fff"/><path d="M-573.18 600.1h30v30h-30zm15 5.4v19.2m-9.6-9.6h19.2" stroke="#333" stroke-width="2" fill="none"/><path d="M-632.54 513.34l3.16-3.13 2.94 2.94-3.16 3.14 1.17 2.78h4.44v4.15h-4.43l-1.17 2.82 3.16 3.13-2.94 2.94-3.16-3.15-2.78 1.15v4.46h-4.15v-4.46l-2.8-1.15-3.15 3.14-2.94-2.95 3.14-3.13-1.15-2.8h-4.44v-4.14h4.43l1.15-2.8-3.13-3.13 2.93-2.94 3.14 3.14 2.8-1.14v-4.46h4.16v4.46l2.78 1.14z" stroke="#000" stroke-width="2" fill="#fff"/><path d="M-632.54 513.34l3.16-3.13 2.94 2.94-3.16 3.14 1.17 2.78h4.44v4.15h-4.43l-1.17 2.82 3.16 3.13-2.94 2.94-3.16-3.15-2.78 1.15v4.46h-4.15v-4.46l-2.8-1.15-3.15 3.14-2.94-2.95 3.14-3.13-1.15-2.8h-4.44v-4.14h4.43l1.15-2.8-3.13-3.13 2.93-2.94 3.14 3.14 2.8-1.14v-4.46h4.16v4.46l2.78 1.14z" stroke="#000" stroke-width="2" fill="#fff"/><path d="M-632.85 521.14c0-2.52-2.03-4.55-4.55-4.55s-4.55 2.02-4.55 4.54c0 2.5 2.03 4.57 4.55 4.57s4.55-2.05 4.55-4.56z" stroke="#000" stroke-width="2" fill="#fff"/><path d="M-625.16 520.7l3.13-3.14 2.94 2.94-3.12 3.13 1.14 2.8h4.45v4.16h-4.45l-1.14 2.76 3.13 3.16-2.92 2.94-3.14-3.16-2.8 1.17v4.44h-4.16v-4.43l-2.78-1.17-3.16 3.16-2.92-2.94 3.14-3.15-1.17-2.78h-4.45v-4.17h4.44l1.16-2.78-3.16-3.15 2.94-2.94 3.16 3.14 2.78-1.15v-4.44h4.15v4.45l2.8 1.15z" stroke="#000" stroke-width="2" fill="#fff"/><path d="M-625.16 520.7l3.13-3.14 2.94 2.94-3.12 3.13 1.14 2.8h4.45v4.16h-4.45l-1.14 2.76 3.13 3.16-2.92 2.94-3.14-3.16-2.8 1.17v4.44h-4.16v-4.43l-2.78-1.17-3.16 3.16-2.92-2.94 3.14-3.15-1.17-2.78h-4.45v-4.17h4.44l1.16-2.78-3.16-3.15 2.94-2.94 3.16 3.14 2.78-1.15v-4.44h4.15v4.45l2.8 1.15z" stroke="#000" stroke-width="2" fill="#fff"/><path d="M-625.47 528.5c0-2.5-2.05-4.56-4.57-4.56-2.52 0-4.55 2.05-4.55 4.57 0 2.53 2.04 4.56 4.56 4.56 2.5 0 4.57-2.03 4.57-4.55z" stroke="#000" stroke-width="2" fill="#fff"/><path d="M-615.68 538.5a6 6 0 0 1 6-6h128a6 6 0 0 1 6 6v48a6 6 0 0 1-6 6h-128a6 6 0 0 1-6-6z" fill="none"/><use xlink:href="#o" transform="matrix(1,0,0,1,-615.6854521221871,532.5) translate(7.305555555555571 22)"/><use xlink:href="#p" transform="matrix(1,0,0,1,-615.6854521221871,532.5) translate(110.47222222222221 22)"/><use xlink:href="#q" transform="matrix(1,0,0,1,-615.6854521221871,532.5) translate(20.6388888888889 45.99999999999999)"/><path d="M-278.5 570h142.2" stroke="#5e5e5e" stroke-width="2" fill="none"/><path d="M-278.48 570.98h-1.27l.5-1.96h.77z" stroke="#5e5e5e" stroke-width=".05" fill="#5e5e5e"/><path d="M-121.04 570l-14.27 4.63v-9.26z" stroke="#5e5e5e" stroke-width="2" fill="#5e5e5e"/><path d="M-115.69 570l37.52-37.5 37.5 37.5-37.5 37.5z" stroke="#5e5e5e" stroke-width="3" fill="#fff"/><path d="M-172.56 616a6 6 0 0 1 6-6H10.2a6 6 0 0 1 6 6v28a6 6 0 0 1-6 6h-176.76a6 6 0 0 1-6-6z" fill="none"/><use xlink:href="#r" transform="matrix(1,0,0,1,-172.56045212218714,610) translate(22.475308641975317 23.555555555555557)"/><use xlink:href="#s" transform="matrix(1,0,0,1,-172.56045212218714,610) translate(116.2037037037037 23.555555555555557)"/><path d="M-78.19 529.38l.02-33.38a6 6 0 0 1 6-6H4.3" stroke="#5e5e5e" stroke-width="2" fill="none"/><path d="M-77.2 531.35l-.98-.97-.98.97v-2h1.95z" stroke="#5e5e5e" stroke-width=".05" fill="#5e5e5e"/><path d="M19.58 490L5.3 494.63v-9.26z" stroke="#5e5e5e" stroke-width="2" fill="#5e5e5e"/><path d="M24.32 436a6 6 0 0 1 6-6h148a6 6 0 0 1 6 6v108a6 6 0 0 1-6 6h-148a6 6 0 0 1-6-6z" stroke="#5e5e5e" stroke-width="3" fill="#fff"/><path d="M33.78 473.2h34.14v-11.33s-3.32-5.66-10.04-7.47H44.76c-6.27 1.93-11.1 8.3-11.1 8.3l.12 10.5z" stroke="#000" stroke-width="3" fill="#f4f6f7"/><path d="M33.78 473.2h34.14v-11.33s-3.32-5.66-10.04-7.47H44.76c-6.27 1.93-11.1 8.3-11.1 8.3l.12 10.5zM41.2 467.04v5.56M60.93 467.16v5.8" stroke="#000" stroke-width="3" fill="none"/><path d="M59.06 446.8c0-4.34-3.45-7.85-7.7-7.85-4.23 0-7.67 3.5-7.67 7.84 0 4.32 3.43 7.84 7.67 7.84s7.7-3.52 7.7-7.85z" stroke="#000" stroke-width="3" fill="#020202"/><path d="M59.06 446.8c0-4.34-3.45-7.85-7.7-7.85-4.23 0-7.67 3.5-7.67 7.84 0 4.32 3.43 7.84 7.67 7.84s7.7-3.52 7.7-7.85z" stroke="#000" stroke-width="3" fill="none"/><path d="M44.34 448.48s4-3.5 7.62-2.62c3.63.9 6.57-1 6.57-1 .33 2.45.05 5.43-2.08 8.1 0 0 1.54 1.08 1.54 2.16 0 1.1.17 2.7-1.43 4.33-1.6 1.63-7.8 1.8-9.56 0-1.77-1.8-1.77-2.64-1.77-3.84 0-1.2.83-1.8 1.78-2.77-1.53-.85-3.54-3.45-2.66-4.35z" stroke="#000" stroke-width="3" fill="#f0eff0"/><path d="M44.34 448.48s4-3.5 7.62-2.62c3.63.9 6.57-1 6.57-1 .33 2.45.05 5.43-2.08 8.1 0 0 1.54 1.08 1.54 2.16 0 1.1.17 2.7-1.43 4.33-1.6 1.63-7.8 1.8-9.56 0-1.77-1.8-1.77-2.64-1.77-3.84 0-1.2.83-1.8 1.78-2.77-1.53-.85-3.54-3.45-2.66-4.35z" stroke="#000" stroke-width="3" fill="none"/><use xlink:href="#t" transform="matrix(1,0,0,1,24.314547877812856,430) translate(67.46179012345681 40.47222222222222)"/><use xlink:href="#u" transform="matrix(1,0,0,1,24.314547877812856,430) translate(50.69635802469137 61.80555555555555)"/><use xlink:href="#v" transform="matrix(1,0,0,1,24.314547877812856,430) translate(133.56055555555554 61.80555555555555)"/><use xlink:href="#w" transform="matrix(1,0,0,1,24.314547877812856,430) translate(36.12845679012346 83.13888888888889)"/><path d="M186.8 470h3.6m7.2 0h7.18m7.2 0h7.18m7.18 0h7.2m7.18 0h3.6" stroke="#5e5e5e" stroke-width="2" fill="none"/><path d="M186.84 470.98h-1.03v-1.96h1.04z" stroke="#5e5e5e" stroke-width=".05" fill="#5e5e5e"/><path d="M259.58 470l-14.27 4.63v-9.26z" stroke="#5e5e5e" stroke-width="2" fill="#5e5e5e"/><path d="M300.3 432.5l24 22.5v52.5h-60v-75z" stroke="#5e5e5e" stroke-width="3" fill="#fff"/><path d="M300.3 432.5V455h24" stroke="#5e5e5e" stroke-width="3" fill="none"/><path d="M259.3 516a6 6 0 0 1 6-6h58a6 6 0 0 1 6 6v48a6 6 0 0 1-6 6h-58a6 6 0 0 1-6-6z" fill="none"/><g><use xlink:href="#x" transform="matrix(1,0,0,1,259.31454787781286,510) translate(4.407407407407415 22.888888888888886)"/><use xlink:href="#y" transform="matrix(1,0,0,1,259.31454787781286,510) translate(3.4197530864197603 44.222222222222214)"/></g><path d="M-115.69 504.48a6 6 0 0 1 6.02-6h18a6 6 0 0 1 6 6v48a6 6 0 0 1-6 6h-18a6 6 0 0 1-6-6z" fill="none"/><g><use xlink:href="#z" transform="matrix(1,0,0,1,-115.68545212218714,498.4782465536607) translate(-1.2716049382716008 33.55555555555556)"/></g><path d="M-78.19 610.62l.02 73.38a6 6 0 0 0 6 6H4.3" stroke="#5e5e5e" stroke-width="2" fill="none"/><path d="M-77.2 610.65h-1.96v-2l.97.97 1-.97z" stroke="#5e5e5e" stroke-width=".05" fill="#5e5e5e"/><path d="M19.58 690L5.3 694.63v-9.26z" stroke="#5e5e5e" stroke-width="2" fill="#5e5e5e"/><path d="M24.32 636a6 6 0 0 1 6-6h148a6 6 0 0 1 6 6v108a6 6 0 0 1-6 6h-148a6 6 0 0 1-6-6z" stroke="#5e5e5e" stroke-width="3" fill="#fff"/><path d="M32.91 664.1l.02-14.7 7-4.2h12.95c1.05 0 .35 2.1-.7 4H43.4l-.34.4h23.8c.36 0 1.06 1.9-.7 3.8h-14l-.34.4h14s1.05 1.9-1.05 3.8H53.22l-.35.4h11.2s1.05 1.9-1.05 3.8h-10.5l-.36.4h9.8s1.05 1.9-.7 4H36.42z" stroke="#5e5e5e" stroke-width="3" fill="#fff"/><g><use xlink:href="#A" transform="matrix(1,0,0,1,24.314547877812856,630) translate(55.12845679012346 21.72222222222222)"/><use xlink:href="#B" transform="matrix(1,0,0,1,24.314547877812856,630) translate(55.5975925925926 43.05555555555556)"/><use xlink:href="#C" transform="matrix(1,0,0,1,24.314547877812856,630) translate(80.28895061728396 43.05555555555556)"/><use xlink:href="#D" transform="matrix(1,0,0,1,24.314547877812856,630) translate(126.65932098765431 43.05555555555556)"/><use xlink:href="#E" transform="matrix(1,0,0,1,24.314547877812856,630) translate(18.671666666666674 64.38888888888889)"/><use xlink:href="#F" transform="matrix(1,0,0,1,24.314547877812856,630) translate(83.7580864197531 64.38888888888889)"/><use xlink:href="#G" transform="matrix(1,0,0,1,24.314547877812856,630) translate(108.44944444444445 64.38888888888889)"/><use xlink:href="#H" transform="matrix(1,0,0,1,24.314547877812856,630) translate(32.94327160493828 85.72222222222223)"/><use xlink:href="#I" transform="matrix(1,0,0,1,24.314547877812856,630) translate(91.56055555555554 85.72222222222223)"/><use xlink:href="#J" transform="matrix(1,0,0,1,24.314547877812856,630) translate(33.78277777777778 107.05555555555554)"/></g><path d="M-280 562.5c0 16.57-13.43 30-30 30s-30-13.43-30-30 13.43-30 30-30 30 13.43 30 30z" stroke="#5e5e5e" stroke-width="3" fill="#fff"/><path d="M-283 562.5c0 14.9-12.1 27-27 27s-27-12.1-27-27 12.1-27 27-27 27 12.1 27 27z" stroke="#5e5e5e" stroke-width="3" fill="#fff"/><g><use xlink:href="#K" transform="matrix(1,0,0,1,-340,594.5) translate(-3.450000000000003 14.4)"/><use xlink:href="#L" transform="matrix(1,0,0,1,-340,594.5) translate(20 36)"/><use xlink:href="#M" transform="matrix(1,0,0,1,-340,594.5) translate(-8.774999999999999 57.6)"/><use xlink:href="#N" transform="matrix(1,0,0,1,-340,594.5) translate(20 79.20000000000002)"/><use xlink:href="#O" transform="matrix(1,0,0,1,-340,594.5) translate(-14.424999999999997 100.80000000000001)"/><use xlink:href="#P" transform="matrix(1,0,0,1,-340,594.5) translate(1.0249999999999986 122.4)"/><use xlink:href="#Q" transform="matrix(1,0,0,1,-340,594.5) translate(39.975 122.4)"/><use xlink:href="#R" transform="matrix(1,0,0,1,-340,594.5) translate(-20.950000000000003 144)"/></g><defs><path d="M185-189c-5-48-123-54-124 2 14 75 158 14 163 119 3 78-121 87-175 55-17-10-28-26-33-46l33-7c5 56 141 63 141-1 0-78-155-14-162-118-5-82 145-84 179-34 5 7 8 16 11 25" id="S"/><path d="M115-194c55 1 70 41 70 98S169 2 115 4C84 4 66-9 55-30l1 105H24l-1-265h31l2 30c10-21 28-34 59-34zm-8 174c40 0 45-34 45-75s-6-73-45-74c-42 0-51 32-51 76 0 43 10 73 51 73" id="T"/><path d="M114-163C36-179 61-72 57 0H25l-1-190h30c1 12-1 29 2 39 6-27 23-49 58-41v29" id="U"/><path d="M24-231v-30h32v30H24zM24 0v-190h32V0H24" id="V"/><path d="M117-194c89-4 53 116 60 194h-32v-121c0-31-8-49-39-48C34-167 62-67 57 0H25l-1-190h30c1 10-1 24 2 32 11-22 29-35 61-36" id="W"/><path d="M59-47c-2 24 18 29 38 22v24C64 9 27 4 27-40v-127H5v-23h24l9-43h21v43h35v23H59v120" id="X"/><g id="a"><use transform="matrix(0.06172839506172839,0,0,0.06172839506172839,0,0)" xlink:href="#S"/><use transform="matrix(0.06172839506172839,0,0,0.06172839506172839,14.814814814814813,0)" xlink:href="#T"/><use transform="matrix(0.06172839506172839,0,0,0.06172839506172839,27.160493827160494,0)" xlink:href="#U"/><use transform="matrix(0.06172839506172839,0,0,0.06172839506172839,34.50617283950617,0)" xlink:href="#V"/><use transform="matrix(0.06172839506172839,0,0,0.06172839506172839,39.382716049382715,0)" xlink:href="#W"/><use transform="matrix(0.06172839506172839,0,0,0.06172839506172839,51.72839506172839,0)" xlink:href="#X"/></g><path d="M233-177c-1 41-23 64-60 70L243 0h-38l-65-103H63V0H30v-248c88 3 205-21 203 71zM63-129c60-2 137 13 137-47 0-61-80-42-137-45v92" id="Y"/><path d="M100-194c63 0 86 42 84 106H49c0 40 14 67 53 68 26 1 43-12 49-29l28 8c-11 28-37 45-77 45C44 4 14-33 15-96c1-61 26-98 85-98zm52 81c6-60-76-77-97-28-3 7-6 17-6 28h103" id="Z"/><path d="M108 0H70L1-190h34L89-25l56-165h34" id="aa"/><path d="M206 0h-36l-40-164L89 0H53L-1-190h32L70-26l43-164h34l41 164 42-164h31" id="ab"/><g id="b"><use transform="matrix(0.06172839506172839,0,0,0.06172839506172839,0,0)" xlink:href="#Y"/><use transform="matrix(0.06172839506172839,0,0,0.06172839506172839,15.987654320987653,0)" xlink:href="#Z"/><use transform="matrix(0.06172839506172839,0,0,0.06172839506172839,28.333333333333332,0)" xlink:href="#aa"/><use transform="matrix(0.06172839506172839,0,0,0.06172839506172839,39.44444444444444,0)" xlink:href="#V"/><use transform="matrix(0.06172839506172839,0,0,0.06172839506172839,44.32098765432099,0)" xlink:href="#Z"/><use transform="matrix(0.06172839506172839,0,0,0.06172839506172839,56.666666666666664,0)" xlink:href="#ab"/></g><path d="M205 0l-28-72H64L36 0H1l101-248h38L239 0h-34zm-38-99l-47-123c-12 45-31 82-46 123h93" id="ac"/><path d="M84 4C-5 8 30-112 23-190h32v120c0 31 7 50 39 49 72-2 45-101 50-169h31l1 190h-30c-1-10 1-25-2-33-11 22-28 36-60 37" id="ad"/><path d="M141-36C126-15 110 5 73 4 37 3 15-17 15-53c-1-64 63-63 125-63 3-35-9-54-41-54-24 1-41 7-42 31l-33-3c5-37 33-52 76-52 45 0 72 20 72 64v82c-1 20 7 32 28 27v20c-31 9-61-2-59-35zM48-53c0 20 12 33 32 33 41-3 63-29 60-74-43 2-92-5-92 41" id="ae"/><path d="M24 0v-261h32V0H24" id="af"/><path d="M9 0v-24l116-142H16v-24h144v24L44-24h123V0H9" id="ag"/><path d="M96-169c-40 0-48 33-48 73s9 75 48 75c24 0 41-14 43-38l32 2c-6 37-31 61-74 61-59 0-76-41-82-99-10-93 101-131 147-64 4 7 5 14 7 22l-32 3c-4-21-16-35-41-35zm3 187c19-1 33 8 33 26 0 31-30 33-64 32V58c18 2 39 4 41-13 1-15-18-13-34-13L87 0h19" id="ah"/><path d="M141-36C126-15 110 5 73 4 37 3 15-17 15-53c-1-64 63-63 125-63 3-35-9-54-41-54-24 1-41 7-42 31l-33-3c5-37 33-52 76-52 45 0 72 20 72 64v82c-1 20 7 32 28 27v20c-31 9-61-2-59-35zM48-53c0 20 12 33 32 33 41-3 63-29 60-74-43 2-92-5-92 41zm117-205c-3 23-9 48-36 47-26-1-65-44-74 0H39c4-23 8-48 36-47s64 44 74 0h16" id="ai"/><path d="M100-194c62-1 85 37 85 99 1 63-27 99-86 99S16-35 15-95c0-66 28-99 85-99zM99-20c44 1 53-31 53-75 0-43-8-75-51-75s-53 32-53 75 10 74 51 75" id="aj"/><g id="c"><use transform="matrix(0.05,0,0,0.05,0,0)" xlink:href="#ac"/><use transform="matrix(0.05,0,0,0.05,12,0)" xlink:href="#X"/><use transform="matrix(0.05,0,0,0.05,17,0)" xlink:href="#ad"/><use transform="matrix(0.05,0,0,0.05,27,0)" xlink:href="#ae"/><use transform="matrix(0.05,0,0,0.05,37,0)" xlink:href="#af"/><use transform="matrix(0.05,0,0,0.05,40.95,0)" xlink:href="#V"/><use transform="matrix(0.05,0,0,0.05,44.900000000000006,0)" xlink:href="#ag"/><use transform="matrix(0.05,0,0,0.05,53.900000000000006,0)" xlink:href="#ae"/><use transform="matrix(0.05,0,0,0.05,63.900000000000006,0)" xlink:href="#ah"/><use transform="matrix(0.05,0,0,0.05,72.9,0)" xlink:href="#ai"/><use transform="matrix(0.05,0,0,0.05,82.9,0)" xlink:href="#aj"/></g><path d="M85-194c31 0 48 13 60 33l-1-100h32l1 261h-30c-2-10 0-23-3-31C134-8 116 4 85 4 32 4 16-35 15-94c0-66 23-100 70-100zm9 24c-40 0-46 34-46 75 0 40 6 74 45 74 42 0 51-32 51-76 0-42-9-74-50-73" id="ak"/><g id="d"><use transform="matrix(0.05,0,0,0.05,0,0)" xlink:href="#ak"/><use transform="matrix(0.05,0,0,0.05,10,0)" xlink:href="#ae"/></g><path d="M135-143c-3-34-86-38-87 0 15 53 115 12 119 90S17 21 10-45l28-5c4 36 97 45 98 0-10-56-113-15-118-90-4-57 82-63 122-42 12 7 21 19 24 35" id="al"/><g id="e"><use transform="matrix(0.05,0,0,0.05,0,0)" xlink:href="#al"/><use transform="matrix(0.05,0,0,0.05,9,0)" xlink:href="#V"/><use transform="matrix(0.05,0,0,0.05,12.949999999999998,0)" xlink:href="#X"/><use transform="matrix(0.05,0,0,0.05,17.95,0)" xlink:href="#ad"/><use transform="matrix(0.05,0,0,0.05,27.950000000000003,0)" xlink:href="#ae"/><use transform="matrix(0.05,0,0,0.05,37.95,0)" xlink:href="#ah"/><use transform="matrix(0.05,0,0,0.05,46.95,0)" xlink:href="#ai"/><use transform="matrix(0.05,0,0,0.05,56.95,0)" xlink:href="#aj"/></g><path d="M33-154v-36h34v36H33zM33 0v-36h34V0H33" id="am"/><g id="f"><use transform="matrix(0.05,0,0,0.05,0,0)" xlink:href="#V"/><use transform="matrix(0.05,0,0,0.05,3.95,0)" xlink:href="#al"/><use transform="matrix(0.05,0,0,0.05,12.949999999999998,0)" xlink:href="#al"/><use transform="matrix(0.05,0,0,0.05,21.95,0)" xlink:href="#ad"/><use transform="matrix(0.05,0,0,0.05,31.950000000000003,0)" xlink:href="#Z"/><use transform="matrix(0.05,0,0,0.05,41.95,0)" xlink:href="#am"/></g><g id="g"><use transform="matrix(0.05,0,0,0.05,0,0)" xlink:href="#ak"/><use transform="matrix(0.05,0,0,0.05,10,0)" xlink:href="#Z"/></g><path d="M109-170H84l-4-78h32zm-65 0H19l-4-78h33" id="an"/><path d="M30 0v-248h187v28H63v79h144v27H63v87h162V0H30" id="ao"/><path d="M210-169c-67 3-38 105-44 169h-31v-121c0-29-5-50-35-48C34-165 62-65 56 0H25l-1-190h30c1 10-1 24 2 32 10-44 99-50 107 0 11-21 27-35 58-36 85-2 47 119 55 194h-31v-121c0-29-5-49-35-48" id="ap"/><g id="h"><use transform="matrix(0.05,0,0,0.05,0,0)" xlink:href="#an"/><use transform="matrix(0.05,0,0,0.05,6.3500000000000005,0)" xlink:href="#ao"/><use transform="matrix(0.05,0,0,0.05,18.35,0)" xlink:href="#ap"/></g><g id="i"><use transform="matrix(0.05,0,0,0.05,0,0)" xlink:href="#ak"/><use transform="matrix(0.05,0,0,0.05,10,0)" xlink:href="#Z"/><use transform="matrix(0.05,0,0,0.05,20,0)" xlink:href="#al"/><use transform="matrix(0.05,0,0,0.05,29,0)" xlink:href="#Z"/><use transform="matrix(0.05,0,0,0.05,39,0)" xlink:href="#W"/><use transform="matrix(0.05,0,0,0.05,49,0)" xlink:href="#aa"/><use transform="matrix(0.05,0,0,0.05,58,0)" xlink:href="#aj"/><use transform="matrix(0.05,0,0,0.05,68,0)" xlink:href="#af"/><use transform="matrix(0.05,0,0,0.05,71.95,0)" xlink:href="#aa"/><use transform="matrix(0.05,0,0,0.05,80.95,0)" xlink:href="#V"/><use transform="matrix(0.05,0,0,0.05,84.9,0)" xlink:href="#ap"/><use transform="matrix(0.05,0,0,0.05,99.85000000000001,0)" xlink:href="#Z"/><use transform="matrix(0.05,0,0,0.05,109.85000000000001,0)" xlink:href="#W"/><use transform="matrix(0.05,0,0,0.05,119.85000000000001,0)" xlink:href="#X"/><use transform="matrix(0.05,0,0,0.05,124.85000000000001,0)" xlink:href="#aj"/><use transform="matrix(0.05,0,0,0.05,134.85000000000002,0)" xlink:href="#an"/></g><g id="j"><use transform="matrix(0.05,0,0,0.05,0,0)" xlink:href="#T"/><use transform="matrix(0.05,0,0,0.05,10,0)" xlink:href="#ae"/><use transform="matrix(0.05,0,0,0.05,20,0)" xlink:href="#U"/><use transform="matrix(0.05,0,0,0.05,25.950000000000003,0)" xlink:href="#ae"/></g><g id="k"><use transform="matrix(0.05,0,0,0.05,0,0)" xlink:href="#an"/><use transform="matrix(0.05,0,0,0.05,6.3500000000000005,0)" xlink:href="#ao"/><use transform="matrix(0.05,0,0,0.05,18.35,0)" xlink:href="#ap"/></g><g id="l"><use transform="matrix(0.05,0,0,0.05,0,0)" xlink:href="#X"/><use transform="matrix(0.05,0,0,0.05,5,0)" xlink:href="#Z"/><use transform="matrix(0.05,0,0,0.05,15,0)" xlink:href="#al"/><use transform="matrix(0.05,0,0,0.05,24,0)" xlink:href="#X"/><use transform="matrix(0.05,0,0,0.05,29,0)" xlink:href="#Z"/><use transform="matrix(0.05,0,0,0.05,39,0)" xlink:href="#al"/><use transform="matrix(0.05,0,0,0.05,48,0)" xlink:href="#an"/></g><path d="M140-251c81 0 123 46 123 126C263-53 228-8 163 1c7 30 30 48 69 40v23c-55 16-95-15-103-61C56-3 17-48 17-125c0-80 42-126 123-126zm0 227c63 0 89-41 89-101s-29-99-89-99c-61 0-89 39-89 99S79-25 140-24" id="aq"/><g id="m"><use transform="matrix(0.055555555555555546,0,0,0.055555555555555546,0,0)" xlink:href="#aq"/><use transform="matrix(0.055555555555555546,0,0,0.055555555555555546,15.555555555555554,0)" xlink:href="#ad"/><use transform="matrix(0.055555555555555546,0,0,0.055555555555555546,26.666666666666664,0)" xlink:href="#ae"/><use transform="matrix(0.055555555555555546,0,0,0.055555555555555546,37.77777777777777,0)" xlink:href="#ak"/><use transform="matrix(0.055555555555555546,0,0,0.055555555555555546,48.88888888888888,0)" xlink:href="#U"/><use transform="matrix(0.055555555555555546,0,0,0.055555555555555546,55.499999999999986,0)" xlink:href="#aj"/></g><path d="M194 0L95-120 63-95V0H30v-248h33v124l119-124h40L117-140 236 0h-42" id="ar"/><path d="M190 0L58-211 59 0H30v-248h39L202-35l-2-213h31V0h-41" id="as"/><path d="M160-131c35 5 61 23 61 61C221 17 115-2 30 0v-248c76 3 177-17 177 60 0 33-19 50-47 57zm-97-11c50-1 110 9 110-42 0-47-63-36-110-37v79zm0 115c55-2 124 14 124-45 0-56-70-42-124-44v89" id="at"/><g id="n"><use transform="matrix(0.055555555555555546,0,0,0.055555555555555546,0,0)" xlink:href="#ar"/><use transform="matrix(0.055555555555555546,0,0,0.055555555555555546,13.33333333333333,0)" xlink:href="#ac"/><use transform="matrix(0.055555555555555546,0,0,0.055555555555555546,26.66666666666666,0)" xlink:href="#as"/><use transform="matrix(0.055555555555555546,0,0,0.055555555555555546,41.05555555555554,0)" xlink:href="#at"/><use transform="matrix(0.055555555555555546,0,0,0.055555555555555546,54.38888888888887,0)" xlink:href="#ac"/><use transform="matrix(0.055555555555555546,0,0,0.055555555555555546,67.7222222222222,0)" xlink:href="#as"/></g><path d="M137 0h-34L2-248h35l83 218 83-218h36" id="au"/><path d="M101-234c-31-9-42 10-38 44h38v23H63V0H32v-167H5v-23h27c-7-52 17-82 69-68v24" id="av"/><path d="M96-169c-40 0-48 33-48 73s9 75 48 75c24 0 41-14 43-38l32 2c-6 37-31 61-74 61-59 0-76-41-82-99-10-93 101-131 147-64 4 7 5 14 7 22l-32 3c-4-21-16-35-41-35" id="aw"/><g id="o"><use transform="matrix(0.05555555555555554,0,0,0.05555555555555554,0,0)" xlink:href="#au"/><use transform="matrix(0.05555555555555554,0,0,0.05555555555555554,12.222222222222218,0)" xlink:href="#Z"/><use transform="matrix(0.05555555555555554,0,0,0.05555555555555554,23.333333333333325,0)" xlink:href="#U"/><use transform="matrix(0.05555555555555554,0,0,0.05555555555555554,29.944444444444436,0)" xlink:href="#V"/><use transform="matrix(0.05555555555555554,0,0,0.05555555555555554,34.33333333333332,0)" xlink:href="#av"/><use transform="matrix(0.05555555555555554,0,0,0.05555555555555554,39.88888888888887,0)" xlink:href="#V"/><use transform="matrix(0.05555555555555554,0,0,0.05555555555555554,44.27777777777776,0)" xlink:href="#aw"/><use transform="matrix(0.05555555555555554,0,0,0.05555555555555554,54.27777777777776,0)" xlink:href="#ae"/><use transform="matrix(0.05555555555555554,0,0,0.05555555555555554,65.38888888888886,0)" xlink:href="#ah"/><use transform="matrix(0.05555555555555554,0,0,0.05555555555555554,75.38888888888886,0)" xlink:href="#ai"/><use transform="matrix(0.05555555555555554,0,0,0.05555555555555554,86.49999999999997,0)" xlink:href="#aj"/></g><g id="p"><use transform="matrix(0.05555555555555554,0,0,0.05555555555555554,0,0)" xlink:href="#ak"/><use transform="matrix(0.05555555555555554,0,0,0.05555555555555554,11.111111111111107,0)" xlink:href="#aj"/></g><g id="q"><use transform="matrix(0.05555555555555554,0,0,0.05555555555555554,0,0)" xlink:href="#V"/><use transform="matrix(0.05555555555555554,0,0,0.05555555555555554,4.3888888888888875,0)" xlink:href="#W"/><use transform="matrix(0.05555555555555554,0,0,0.05555555555555554,15.499999999999995,0)" xlink:href="#aw"/><use transform="matrix(0.05555555555555554,0,0,0.05555555555555554,25.499999999999993,0)" xlink:href="#U"/><use transform="matrix(0.05555555555555554,0,0,0.05555555555555554,32.1111111111111,0)" xlink:href="#Z"/><use transform="matrix(0.05555555555555554,0,0,0.05555555555555554,43.22222222222221,0)" xlink:href="#ap"/><use transform="matrix(0.05555555555555554,0,0,0.05555555555555554,59.833333333333314,0)" xlink:href="#Z"/><use transform="matrix(0.05555555555555554,0,0,0.05555555555555554,70.94444444444443,0)" xlink:href="#W"/><use transform="matrix(0.05555555555555554,0,0,0.05555555555555554,82.05555555555554,0)" xlink:href="#X"/><use transform="matrix(0.05555555555555554,0,0,0.05555555555555554,87.6111111111111,0)" xlink:href="#aj"/></g><path d="M33 0v-248h34V0H33" id="ax"/><g id="r"><use transform="matrix(0.049382716049382706,0,0,0.049382716049382706,0,0)" xlink:href="#ax"/><use transform="matrix(0.049382716049382706,0,0,0.049382716049382706,4.93827160493827,0)" xlink:href="#W"/><use transform="matrix(0.049382716049382706,0,0,0.049382716049382706,14.814814814814811,0)" xlink:href="#aw"/><use transform="matrix(0.049382716049382706,0,0,0.049382716049382706,23.7037037037037,0)" xlink:href="#U"/><use transform="matrix(0.049382716049382706,0,0,0.049382716049382706,29.58024691358024,0)" xlink:href="#Z"/><use transform="matrix(0.049382716049382706,0,0,0.049382716049382706,39.456790123456784,0)" xlink:href="#ap"/><use transform="matrix(0.049382716049382706,0,0,0.049382716049382706,54.222222222222214,0)" xlink:href="#Z"/><use transform="matrix(0.049382716049382706,0,0,0.049382716049382706,64.09876543209876,0)" xlink:href="#W"/><use transform="matrix(0.049382716049382706,0,0,0.049382716049382706,73.9753086419753,0)" xlink:href="#X"/><use transform="matrix(0.049382716049382706,0,0,0.049382716049382706,78.91358024691357,0)" xlink:href="#aj"/></g><g id="s"><use transform="matrix(0.049382716049382706,0,0,0.049382716049382706,0,0)" xlink:href="#T"/><use transform="matrix(0.049382716049382706,0,0,0.049382716049382706,9.87654320987654,0)" xlink:href="#U"/><use transform="matrix(0.049382716049382706,0,0,0.049382716049382706,15.75308641975308,0)" xlink:href="#aj"/><use transform="matrix(0.049382716049382706,0,0,0.049382716049382706,25.629629629629626,0)" xlink:href="#W"/><use transform="matrix(0.049382716049382706,0,0,0.049382716049382706,35.50617283950616,0)" xlink:href="#X"/><use transform="matrix(0.049382716049382706,0,0,0.049382716049382706,40.444444444444436,0)" xlink:href="#aj"/></g><path d="M30 0v-248h33v221h125V0H30" id="ay"/><g id="t"><use transform="matrix(0.049382716049382706,0,0,0.049382716049382706,0,0)" xlink:href="#ay"/><use transform="matrix(0.049382716049382706,0,0,0.049382716049382706,9.87654320987654,0)" xlink:href="#Z"/><use transform="matrix(0.049382716049382706,0,0,0.049382716049382706,19.75308641975308,0)" xlink:href="#aa"/><use transform="matrix(0.049382716049382706,0,0,0.049382716049382706,28.64197530864197,0)" xlink:href="#ae"/><use transform="matrix(0.049382716049382706,0,0,0.049382716049382706,38.518518518518505,0)" xlink:href="#W"/><use transform="matrix(0.049382716049382706,0,0,0.049382716049382706,48.39506172839505,0)" xlink:href="#X"/><use transform="matrix(0.049382716049382706,0,0,0.049382716049382706,53.33333333333332,0)" xlink:href="#ae"/><use transform="matrix(0.049382716049382706,0,0,0.049382716049382706,63.209876543209866,0)" xlink:href="#U"/></g><path d="M100-194c62-1 85 37 85 99 1 63-27 99-86 99S16-35 15-95c0-66 28-99 85-99zM99-20c44 1 53-31 53-75 0-43-8-75-51-75s-53 32-53 75 10 74 51 75zm66-238c-3 23-9 48-36 47-26-1-65-44-74 0H39c4-23 8-48 36-47s64 44 74 0h16" id="az"/><g id="u"><use transform="matrix(0.049382716049382706,0,0,0.049382716049382706,0,0)" xlink:href="#aw"/><use transform="matrix(0.049382716049382706,0,0,0.049382716049382706,8.888888888888888,0)" xlink:href="#aj"/><use transform="matrix(0.049382716049382706,0,0,0.049382716049382706,18.76543209876543,0)" xlink:href="#U"/><use transform="matrix(0.049382716049382706,0,0,0.049382716049382706,24.64197530864197,0)" xlink:href="#U"/><use transform="matrix(0.049382716049382706,0,0,0.049382716049382706,30.518518518518512,0)" xlink:href="#Z"/><use transform="matrix(0.049382716049382706,0,0,0.049382716049382706,40.39506172839505,0)" xlink:href="#ah"/><use transform="matrix(0.049382716049382706,0,0,0.049382716049382706,49.283950617283935,0)" xlink:href="#az"/><use transform="matrix(0.049382716049382706,0,0,0.049382716049382706,59.16049382716048,0)" xlink:href="#Z"/><use transform="matrix(0.049382716049382706,0,0,0.049382716049382706,69.03703703703702,0)" xlink:href="#al"/></g><g id="v"><use transform="matrix(0.049382716049382706,0,0,0.049382716049382706,0,0)" xlink:href="#ak"/><use transform="matrix(0.049382716049382706,0,0,0.049382716049382706,9.87654320987654,0)" xlink:href="#aj"/></g><g id="w"><use transform="matrix(0.049382716049382706,0,0,0.049382716049382706,0,0)" xlink:href="#V"/><use transform="matrix(0.049382716049382706,0,0,0.049382716049382706,3.9012345679012337,0)" xlink:href="#W"/><use transform="matrix(0.049382716049382706,0,0,0.049382716049382706,13.777777777777775,0)" xlink:href="#aw"/><use transform="matrix(0.049382716049382706,0,0,0.049382716049382706,22.666666666666664,0)" xlink:href="#U"/><use transform="matrix(0.049382716049382706,0,0,0.049382716049382706,28.543209876543205,0)" xlink:href="#Z"/><use transform="matrix(0.049382716049382706,0,0,0.049382716049382706,38.419753086419746,0)" xlink:href="#ap"/><use transform="matrix(0.049382716049382706,0,0,0.049382716049382706,53.185185185185176,0)" xlink:href="#Z"/><use transform="matrix(0.049382716049382706,0,0,0.049382716049382706,63.061728395061714,0)" xlink:href="#W"/><use transform="matrix(0.049382716049382706,0,0,0.049382716049382706,72.93827160493827,0)" xlink:href="#X"/><use transform="matrix(0.049382716049382706,0,0,0.049382716049382706,77.87654320987653,0)" xlink:href="#aj"/></g><path d="M30-248c87 1 191-15 191 75 0 78-77 80-158 76V0H30v-248zm33 125c57 0 124 11 124-50 0-59-68-47-124-48v98" id="aA"/><g id="x"><use transform="matrix(0.049382716049382706,0,0,0.049382716049382706,0,0)" xlink:href="#aA"/><use transform="matrix(0.049382716049382706,0,0,0.049382716049382706,11.85185185185185,0)" xlink:href="#U"/><use transform="matrix(0.049382716049382706,0,0,0.049382716049382706,17.728395061728392,0)" xlink:href="#aj"/><use transform="matrix(0.049382716049382706,0,0,0.049382716049382706,27.604938271604933,0)" xlink:href="#ak"/><use transform="matrix(0.049382716049382706,0,0,0.049382716049382706,37.481481481481474,0)" xlink:href="#ad"/><use transform="matrix(0.049382716049382706,0,0,0.049382716049382706,47.35802469135801,0)" xlink:href="#aw"/><use transform="matrix(0.049382716049382706,0,0,0.049382716049382706,56.24691358024689,0)" xlink:href="#X"/></g><path d="M143 0L79-87 56-68V0H24v-261h32v163l83-92h37l-77 82L181 0h-38" id="aB"/><path d="M177-190C167-65 218 103 67 71c-23-6-38-20-44-43l32-5c15 47 100 32 89-28v-30C133-14 115 1 83 1 29 1 15-40 15-95c0-56 16-97 71-98 29-1 48 16 59 35 1-10 0-23 2-32h30zM94-22c36 0 50-32 50-73 0-42-14-75-50-75-39 0-46 34-46 75s6 73 46 73" id="aC"/><g id="y"><use transform="matrix(0.049382716049382706,0,0,0.049382716049382706,0,0)" xlink:href="#at"/><use transform="matrix(0.049382716049382706,0,0,0.049382716049382706,11.85185185185185,0)" xlink:href="#ae"/><use transform="matrix(0.049382716049382706,0,0,0.049382716049382706,21.728395061728392,0)" xlink:href="#aw"/><use transform="matrix(0.049382716049382706,0,0,0.049382716049382706,30.617283950617278,0)" xlink:href="#aB"/><use transform="matrix(0.049382716049382706,0,0,0.049382716049382706,39.50617283950616,0)" xlink:href="#af"/><use transform="matrix(0.049382716049382706,0,0,0.049382716049382706,43.4074074074074,0)" xlink:href="#aj"/><use transform="matrix(0.049382716049382706,0,0,0.049382716049382706,53.28395061728394,0)" xlink:href="#aC"/></g><g id="z"><use transform="matrix(0.049382716049382706,0,0,0.049382716049382706,0,0)" xlink:href="#as"/><use transform="matrix(0.049382716049382706,0,0,0.049382716049382706,12.790123456790122,0)" xlink:href="#ai"/><use transform="matrix(0.049382716049382706,0,0,0.049382716049382706,22.666666666666664,0)" xlink:href="#aj"/></g><g id="A"><use transform="matrix(0.049382716049382706,0,0,0.049382716049382706,0,0)" xlink:href="#ac"/><use transform="matrix(0.049382716049382706,0,0,0.049382716049382706,11.85185185185185,0)" xlink:href="#X"/><use transform="matrix(0.049382716049382706,0,0,0.049382716049382706,16.79012345679012,0)" xlink:href="#ad"/><use transform="matrix(0.049382716049382706,0,0,0.049382716049382706,26.66666666666666,0)" xlink:href="#ae"/><use transform="matrix(0.049382716049382706,0,0,0.049382716049382706,36.5432098765432,0)" xlink:href="#af"/><use transform="matrix(0.049382716049382706,0,0,0.049382716049382706,40.444444444444436,0)" xlink:href="#V"/><use transform="matrix(0.049382716049382706,0,0,0.049382716049382706,44.34567901234567,0)" xlink:href="#ag"/><use transform="matrix(0.049382716049382706,0,0,0.049382716049382706,53.234567901234556,0)" xlink:href="#ae"/><use transform="matrix(0.049382716049382706,0,0,0.049382716049382706,63.1111111111111,0)" xlink:href="#ah"/><use transform="matrix(0.049382716049382706,0,0,0.049382716049382706,71.99999999999999,0)" xlink:href="#ai"/><use transform="matrix(0.049382716049382706,0,0,0.049382716049382706,81.87654320987653,0)" xlink:href="#aj"/></g><g id="B"><use transform="matrix(0.049382716049382706,0,0,0.049382716049382706,0,0)" xlink:href="#ak"/><use transform="matrix(0.049382716049382706,0,0,0.049382716049382706,9.87654320987654,0)" xlink:href="#ae"/></g><g id="C"><use transform="matrix(0.049382716049382706,0,0,0.049382716049382706,0,0)" xlink:href="#V"/><use transform="matrix(0.049382716049382706,0,0,0.049382716049382706,3.9012345679012337,0)" xlink:href="#al"/><use transform="matrix(0.049382716049382706,0,0,0.049382716049382706,12.790123456790122,0)" xlink:href="#al"/><use transform="matrix(0.049382716049382706,0,0,0.049382716049382706,21.67901234567901,0)" xlink:href="#ad"/><use transform="matrix(0.049382716049382706,0,0,0.049382716049382706,31.55555555555555,0)" xlink:href="#Z"/></g><g id="D"><use transform="matrix(0.049382716049382706,0,0,0.049382716049382706,0,0)" xlink:href="#W"/><use transform="matrix(0.049382716049382706,0,0,0.049382716049382706,9.87654320987654,0)" xlink:href="#aj"/></g><path d="M143 4C61 4 22-44 18-125c-5-107 100-154 193-111 17 8 29 25 37 43l-32 9c-13-25-37-40-76-40-61 0-88 39-88 99 0 61 29 100 91 101 35 0 62-11 79-27v-45h-74v-28h105v86C228-13 192 4 143 4" id="aD"/><path d="M197 0v-115H63V0H30v-248h33v105h134v-105h34V0h-34" id="aE"/><path d="M115-194c53 0 69 39 70 98 0 66-23 100-70 100C84 3 66-7 56-30L54 0H23l1-261h32v101c10-23 28-34 59-34zm-8 174c40 0 45-34 45-75 0-40-5-75-45-74-42 0-51 32-51 76 0 43 10 73 51 73" id="aF"/><g id="E"><use transform="matrix(0.049382716049382706,0,0,0.049382716049382706,0,0)" xlink:href="#aD"/><use transform="matrix(0.049382716049382706,0,0,0.049382716049382706,13.827160493827158,0)" xlink:href="#V"/><use transform="matrix(0.049382716049382706,0,0,0.049382716049382706,17.728395061728392,0)" xlink:href="#X"/><use transform="matrix(0.049382716049382706,0,0,0.049382716049382706,22.666666666666664,0)" xlink:href="#aE"/><use transform="matrix(0.049382716049382706,0,0,0.049382716049382706,35.456790123456784,0)" xlink:href="#ad"/><use transform="matrix(0.049382716049382706,0,0,0.049382716049382706,45.33333333333333,0)" xlink:href="#aF"/><use transform="matrix(0.049382716049382706,0,0,0.049382716049382706,55.20987654320988,0)" xlink:href="#am"/></g><g id="F"><use transform="matrix(0.049382716049382706,0,0,0.049382716049382706,0,0)" xlink:href="#ak"/><use transform="matrix(0.049382716049382706,0,0,0.049382716049382706,9.87654320987654,0)" xlink:href="#Z"/></g><g id="G"><use transform="matrix(0.049382716049382706,0,0,0.049382716049382706,0,0)" xlink:href="#an"/><use transform="matrix(0.049382716049382706,0,0,0.049382716049382706,6.2716049382716035,0)" xlink:href="#ao"/><use transform="matrix(0.049382716049382706,0,0,0.049382716049382706,18.123456790123452,0)" xlink:href="#ap"/></g><g id="H"><use transform="matrix(0.049382716049382706,0,0,0.049382716049382706,0,0)" xlink:href="#X"/><use transform="matrix(0.049382716049382706,0,0,0.049382716049382706,4.93827160493827,0)" xlink:href="#Z"/><use transform="matrix(0.049382716049382706,0,0,0.049382716049382706,14.814814814814811,0)" xlink:href="#al"/><use transform="matrix(0.049382716049382706,0,0,0.049382716049382706,23.7037037037037,0)" xlink:href="#X"/><use transform="matrix(0.049382716049382706,0,0,0.049382716049382706,28.64197530864197,0)" xlink:href="#Z"/><use transform="matrix(0.049382716049382706,0,0,0.049382716049382706,38.518518518518505,0)" xlink:href="#al"/><use transform="matrix(0.049382716049382706,0,0,0.049382716049382706,47.40740740740739,0)" xlink:href="#an"/></g><g id="I"><use transform="matrix(0.049382716049382706,0,0,0.049382716049382706,0,0)" xlink:href="#T"/><use transform="matrix(0.049382716049382706,0,0,0.049382716049382706,9.87654320987654,0)" xlink:href="#ae"/><use transform="matrix(0.049382716049382706,0,0,0.049382716049382706,19.75308641975308,0)" xlink:href="#U"/><use transform="matrix(0.049382716049382706,0,0,0.049382716049382706,25.629629629629626,0)" xlink:href="#ae"/></g><path d="M212-179c-10-28-35-45-73-45-59 0-87 40-87 99 0 60 29 101 89 101 43 0 62-24 78-52l27 14C228-24 195 4 139 4 59 4 22-46 18-125c-6-104 99-153 187-111 19 9 31 26 39 46" id="aG"/><path d="M34 0v-190h32V0H34zM24-211c8-23 27-35 38-54h36v5l-58 49H24" id="aH"/><g id="J"><use transform="matrix(0.049382716049382706,0,0,0.049382716049382706,0,0)" xlink:href="#an"/><use transform="matrix(0.049382716049382706,0,0,0.049382716049382706,6.2716049382716035,0)" xlink:href="#aG"/><use transform="matrix(0.049382716049382706,0,0,0.049382716049382706,19.061728395061724,0)" xlink:href="#aj"/><use transform="matrix(0.049382716049382706,0,0,0.049382716049382706,28.938271604938265,0)" xlink:href="#W"/><use transform="matrix(0.049382716049382706,0,0,0.049382716049382706,38.81481481481481,0)" xlink:href="#aw"/><use transform="matrix(0.049382716049382706,0,0,0.049382716049382706,47.703703703703695,0)" xlink:href="#af"/><use transform="matrix(0.049382716049382706,0,0,0.049382716049382706,51.60493827160493,0)" xlink:href="#ad"/><use transform="matrix(0.049382716049382706,0,0,0.049382716049382706,61.48148148148147,0)" xlink:href="#aH"/><use transform="matrix(0.049382716049382706,0,0,0.049382716049382706,66.41975308641973,0)" xlink:href="#ak"/><use transform="matrix(0.049382716049382706,0,0,0.049382716049382706,76.29629629629628,0)" xlink:href="#aj"/><use transform="matrix(0.049382716049382706,0,0,0.049382716049382706,86.17283950617282,0)" xlink:href="#an"/></g><g id="K"><use transform="matrix(0.05,0,0,0.05,0,0)" xlink:href="#Y"/><use transform="matrix(0.05,0,0,0.05,12.950000000000001,0)" xlink:href="#Z"/><use transform="matrix(0.05,0,0,0.05,22.950000000000003,0)" xlink:href="#ad"/><use transform="matrix(0.05,0,0,0.05,32.95,0)" xlink:href="#W"/><use transform="matrix(0.05,0,0,0.05,42.95,0)" xlink:href="#V"/><use transform="matrix(0.05,0,0,0.05,46.900000000000006,0)" xlink:href="#ai"/><use transform="matrix(0.05,0,0,0.05,56.900000000000006,0)" xlink:href="#aj"/></g><g id="L"><use transform="matrix(0.05,0,0,0.05,0,0)" xlink:href="#ak"/><use transform="matrix(0.05,0,0,0.05,10,0)" xlink:href="#Z"/></g><g id="M"><use transform="matrix(0.05,0,0,0.05,0,0)" xlink:href="#au"/><use transform="matrix(0.05,0,0,0.05,10.65,0)" xlink:href="#ae"/><use transform="matrix(0.05,0,0,0.05,20.65,0)" xlink:href="#af"/><use transform="matrix(0.05,0,0,0.05,24.599999999999998,0)" xlink:href="#V"/><use transform="matrix(0.05,0,0,0.05,28.549999999999997,0)" xlink:href="#ak"/><use transform="matrix(0.05,0,0,0.05,38.55,0)" xlink:href="#ae"/><use transform="matrix(0.05,0,0,0.05,48.55,0)" xlink:href="#ah"/><use transform="matrix(0.05,0,0,0.05,57.54999999999999,0)" xlink:href="#ai"/><use transform="matrix(0.05,0,0,0.05,67.55,0)" xlink:href="#aj"/></g><g id="N"><use transform="matrix(0.05,0,0,0.05,0,0)" xlink:href="#ak"/><use transform="matrix(0.05,0,0,0.05,10,0)" xlink:href="#aj"/></g><g id="O"><use transform="matrix(0.05,0,0,0.05,0,0)" xlink:href="#V"/><use transform="matrix(0.05,0,0,0.05,3.95,0)" xlink:href="#W"/><use transform="matrix(0.05,0,0,0.05,13.949999999999998,0)" xlink:href="#aw"/><use transform="matrix(0.05,0,0,0.05,22.95,0)" xlink:href="#U"/><use transform="matrix(0.05,0,0,0.05,28.899999999999995,0)" xlink:href="#Z"/><use transform="matrix(0.05,0,0,0.05,38.9,0)" xlink:href="#ap"/><use transform="matrix(0.05,0,0,0.05,53.85,0)" xlink:href="#Z"/><use transform="matrix(0.05,0,0,0.05,63.85,0)" xlink:href="#W"/><use transform="matrix(0.05,0,0,0.05,73.85,0)" xlink:href="#X"/><use transform="matrix(0.05,0,0,0.05,78.85,0)" xlink:href="#aj"/></g><g id="P"><use transform="matrix(0.05,0,0,0.05,0,0)" xlink:href="#aw"/><use transform="matrix(0.05,0,0,0.05,9,0)" xlink:href="#aj"/><use transform="matrix(0.05,0,0,0.05,19,0)" xlink:href="#ap"/></g><g id="Q"><use transform="matrix(0.05,0,0,0.05,0,0)" xlink:href="#aj"/><use transform="matrix(0.05,0,0,0.05,10,0)" xlink:href="#al"/></g><path d="M106-169C34-169 62-67 57 0H25v-261h32l-1 103c12-21 28-36 61-36 89 0 53 116 60 194h-32v-121c2-32-8-49-39-48" id="aI"/><g id="R"><use transform="matrix(0.05,0,0,0.05,0,0)" xlink:href="#al"/><use transform="matrix(0.05,0,0,0.05,9,0)" xlink:href="#X"/><use transform="matrix(0.05,0,0,0.05,14,0)" xlink:href="#ae"/><use transform="matrix(0.05,0,0,0.05,24,0)" xlink:href="#aB"/><use transform="matrix(0.05,0,0,0.05,33,0)" xlink:href="#Z"/><use transform="matrix(0.05,0,0,0.05,43,0)" xlink:href="#aI"/><use transform="matrix(0.05,0,0,0.05,53,0)" xlink:href="#aj"/><use transform="matrix(0.05,0,0,0.05,63,0)" xlink:href="#af"/><use transform="matrix(0.05,0,0,0.05,66.95,0)" xlink:href="#ak"/><use transform="matrix(0.05,0,0,0.05,76.95,0)" xlink:href="#Z"/><use transform="matrix(0.05,0,0,0.05,86.95,0)" xlink:href="#U"/><use transform="matrix(0.05,0,0,0.05,92.9,0)" xlink:href="#al"/></g></defs></g></svg>